{"glyphs":{"0":{"ha":621,"x_min":75,"x_max":542,"o":"m 524 356 l 322 155 q 294 155 308 141 l 87 362 q 89 387 75 372 l 296 595 q 319 595 308 607 l 524 391 q 524 356 542 373 z "},"1":{"ha":581,"x_min":122,"x_max":450,"o":"m 450 358 q 436 116 450 230 q 353 -94 411 -94 q 312 -66 321 -94 q 294 61 305 -46 q 260 331 274 242 q 197 595 235 481 q 145 722 177 656 q 122 782 122 769 q 189 927 122 795 q 271 1063 257 1063 q 334 986 295 1063 q 412 753 381 895 q 450 358 450 575 z "},"2":{"ha":749,"x_min":37,"x_max":667,"o":"m 667 968 q 617 715 667 815 q 420 566 555 588 q 438 311 438 460 q 413 51 438 172 q 337 -93 383 -93 q 277 30 290 -93 q 236 353 247 296 q 77 722 199 540 q 37 789 37 782 q 75 872 37 797 q 161 1051 123 970 q 183 1069 170 1069 q 212 1046 198 1069 q 292 948 250 977 q 412 916 338 916 q 522 959 484 916 q 564 1039 537 977 q 608 1082 582 1082 q 667 968 667 1082 z "},"3":{"ha":907,"x_min":60,"x_max":848,"o":"m 848 970 q 793 706 848 812 q 628 587 733 587 q 526 625 568 587 q 433 569 503 599 q 449 340 449 424 q 422 81 449 216 q 332 -94 388 -94 q 266 24 284 -94 q 254 177 262 45 q 231 386 245 318 q 160 608 205 511 q 92 725 132 668 q 60 777 60 768 q 114 902 60 792 l 186 1051 q 211 1077 199 1077 q 239 1047 224 1077 q 387 914 307 914 q 465 952 441 914 q 489 1023 468 958 q 530 1061 501 1061 q 571 1021 559 1061 q 593 949 575 1009 q 653 909 611 909 q 723 949 699 909 q 751 1023 727 959 q 793 1063 767 1063 q 848 970 848 1063 z "},"4":{"ha":860,"x_min":58,"x_max":805,"o":"m 805 812 q 715 627 805 722 q 481 518 613 518 q 428 523 454 518 l 446 438 q 458 311 458 376 q 433 51 458 172 q 357 -93 404 -93 q 297 30 311 -93 q 256 353 267 299 q 181 578 234 467 q 97 722 149 646 q 58 789 58 781 q 96 872 58 796 q 182 1051 146 972 q 201 1069 190 1069 q 232 1046 215 1069 q 323 924 254 1021 q 410 1036 354 986 q 575 1105 488 1105 q 718 1045 666 1105 q 754 968 754 1003 q 713 914 754 914 q 647 933 699 914 q 564 951 595 951 q 446 916 494 951 q 403 852 403 886 q 408 836 403 843 q 490 777 439 791 q 591 768 524 768 q 686 788 644 768 q 740 825 707 799 q 778 846 765 846 q 805 812 805 846 z "},"5":{"ha":820,"x_min":58,"x_max":762,"o":"m 762 246 q 715 22 762 117 q 538 -100 654 -100 q 399 -18 438 -100 q 254 -98 340 -98 q 134 -45 191 -98 q 58 155 58 26 q 264 744 58 350 l 220 784 q 375 1077 355 1077 q 492 959 401 1077 q 670 657 600 821 q 762 246 762 444 m 607 267 q 503 481 607 326 q 342 673 403 631 q 204 292 204 372 q 291 196 204 196 q 358 253 326 196 q 406 311 390 311 q 444 281 433 311 l 466 220 q 529 189 484 189 q 607 267 607 189 z "},"6":{"ha":823,"x_min":63,"x_max":772,"o":"m 772 744 q 745 604 772 713 q 700 473 715 486 q 628 448 663 461 q 299 159 475 389 q 174 -25 250 94 q 96 -100 127 -100 q 63 -28 63 -100 q 64 4 63 -10 q 153 268 73 87 q 272 456 191 355 q 95 683 95 497 q 201 900 95 774 q 459 1072 345 1072 q 595 1015 528 1072 q 666 889 666 956 q 629 839 666 839 q 545 860 610 839 q 446 881 481 881 q 300 840 364 881 q 241 768 241 803 q 318 681 241 715 q 441 652 382 652 q 606 727 482 652 q 743 802 729 802 q 772 744 772 802 z "},"7":{"ha":865,"x_min":56,"x_max":806,"o":"m 806 728 q 773 685 806 722 q 689 574 726 632 q 500 114 562 378 q 464 -42 491 71 q 416 -98 450 -98 q 366 -41 385 -98 q 329 118 362 -28 q 120 651 260 424 l 56 755 q 138 1040 56 770 q 161 1075 149 1075 q 190 1053 173 1075 q 345 777 278 939 q 424 515 401 638 q 710 1059 505 849 q 729 1071 722 1071 q 751 1028 743 1071 q 806 728 806 743 z "},"8":{"ha":861,"x_min":58,"x_max":808,"o":"m 808 216 q 726 -70 808 195 q 703 -104 715 -104 q 675 -83 692 -104 q 520 193 587 31 q 440 455 462 333 q 155 -90 359 119 q 136 -100 144 -100 q 113 -58 121 -100 q 58 242 58 227 q 91 286 58 249 q 175 396 137 337 q 364 857 302 593 q 401 1012 374 900 q 448 1067 415 1067 q 498 1010 480 1067 q 536 852 503 996 q 744 319 606 545 l 808 216 z "},"9":{"ha":681,"x_min":58,"x_max":622,"o":"m 620 218 q 596 -49 610 75 q 573 -98 591 -98 q 538 -83 562 -98 q 347 319 347 27 l 347 450 l 239 450 q 105 498 152 450 q 58 635 58 547 q 124 895 58 751 q 332 1077 208 1077 q 539 789 539 1077 q 528 655 539 745 q 517 519 516 566 q 589 272 518 354 l 615 250 q 620 218 622 243 m 372 741 q 268 827 359 827 q 221 808 241 827 q 201 763 201 790 q 250 722 201 730 q 347 718 272 718 q 372 741 375 718 z "}," ":{"ha":271,"x_min":0,"x_max":0,"o":""},"!":{"ha":433,"x_min":121,"x_max":431,"o":"m 431 880 q 391 653 431 814 q 347 492 366 550 q 276 357 304 357 q 156 661 228 356 q 121 879 121 811 q 166 992 121 945 q 277 1040 211 1040 q 385 991 338 1040 q 431 880 431 943 m 421 151 q 378 45 421 88 q 273 2 335 2 q 167 45 210 2 q 124 151 124 88 q 167 257 124 214 q 273 300 210 300 q 378 257 336 300 q 421 151 421 214 z "},"%":{"ha":924,"x_min":71,"x_max":857,"o":"m 372 878 q 328 772 372 814 q 221 729 285 729 q 114 772 157 729 q 71 878 71 814 q 114 985 71 942 q 221 1028 157 1028 q 328 985 285 1028 q 372 878 372 942 m 743 1067 l 309 -134 l 186 -134 l 621 1067 l 743 1067 m 857 39 q 813 -67 857 -24 q 707 -111 770 -111 q 600 -67 644 -111 q 557 39 557 -24 q 600 145 557 102 q 707 189 644 189 q 814 146 770 189 q 857 39 857 102 z "},"(":{"ha":553,"x_min":127,"x_max":549,"o":"m 549 -257 q 549 -267 549 -262 q 500 -305 549 -305 q 376 -224 460 -305 q 210 6 275 -127 q 127 370 127 178 q 210 700 127 531 q 376 943 277 834 q 500 1038 464 1038 q 549 999 549 1038 q 549 989 549 994 q 467 818 525 942 q 391 364 391 643 q 467 -87 391 72 l 549 -257 z "},")":{"ha":550,"x_min":125,"x_max":548,"o":"m 126 -257 q 125 -267 125 -262 q 174 -305 125 -305 q 298 -224 213 -305 q 465 6 399 -127 q 548 370 548 178 q 465 700 548 530 q 298 943 399 833 q 174 1038 210 1038 q 125 998 125 1038 q 126 989 125 994 q 208 818 150 942 q 284 364 284 643 q 208 -88 284 87 q 126 -257 208 -88 z "},"*":{"ha":1087,"x_min":121,"x_max":1086,"o":"m 951 659 q 716 547 887 593 q 701 545 709 545 q 680 561 680 545 q 686 577 680 567 q 804 795 737 731 q 874 825 836 825 q 946 793 914 825 q 979 721 979 761 q 951 659 979 687 m 705 838 q 625 596 705 737 q 601 579 616 579 q 578 597 586 579 q 504 832 504 759 q 605 930 504 930 q 705 838 705 930 m 1086 465 q 991 368 1086 370 q 740 447 888 366 q 722 471 722 457 q 741 491 722 486 q 983 564 898 564 q 1058 537 1030 564 q 1086 465 1086 511 m 704 474 q 673 404 704 434 q 602 374 642 374 q 531 403 558 374 q 504 475 504 431 q 533 543 504 517 q 604 569 562 569 q 674 542 645 569 q 704 474 704 515 m 944 126 q 928 110 944 126 q 872 94 911 94 q 804 124 835 94 q 688 349 730 198 q 685 365 685 357 q 703 382 685 382 q 720 379 711 382 q 944 264 888 316 q 976 196 976 234 q 944 126 976 159 m 513 581 q 517 566 517 572 q 496 546 517 546 q 482 549 490 546 q 257 666 317 608 q 226 735 226 696 q 257 804 226 774 q 328 835 289 835 q 395 806 364 835 q 513 581 470 736 m 466 450 q 220 379 306 379 q 149 406 177 379 q 121 475 121 432 q 216 571 121 571 q 465 494 325 571 q 484 473 484 486 q 466 450 484 458 m 697 92 q 597 1 697 1 q 524 27 551 1 q 496 99 496 54 q 569 332 496 179 q 592 352 578 352 q 617 333 606 352 q 697 92 697 198 m 517 357 q 395 139 454 197 q 324 109 365 109 q 254 139 285 109 q 222 208 222 170 q 250 271 222 243 q 491 387 323 343 q 500 389 496 389 q 519 370 519 389 q 517 357 519 363 z "},"+":{"ha":1006,"x_min":77,"x_max":945,"o":"m 945 334 l 576 334 l 576 -37 l 448 -37 l 448 334 l 77 334 l 77 462 l 448 462 l 448 832 l 576 832 l 576 462 l 945 462 l 945 334 z "},",":{"ha":428,"x_min":119,"x_max":425,"o":"m 119 157 q 161 268 119 224 q 269 313 203 313 q 384 257 339 313 q 425 134 425 205 q 370 -66 425 47 q 259 -238 324 -159 q 174 -311 199 -311 q 125 -269 125 -311 q 180 -173 125 -248 q 262 -3 240 -89 q 153 43 191 -3 q 119 157 119 85 z "},"-":{"ha":1006,"x_min":77,"x_max":945,"o":"m 945 334 l 77 334 l 77 462 l 945 462 l 945 334 z "},".":{"ha":428,"x_min":119,"x_max":425,"o":"m 425 154 q 381 45 425 90 q 273 1 337 1 q 164 45 208 1 q 119 154 119 90 q 164 262 119 218 q 273 306 208 306 q 381 262 337 306 q 425 154 425 218 z "},"/":{"ha":690,"x_min":71,"x_max":628,"o":"m 628 1067 l 193 -134 l 71 -134 l 505 1067 l 628 1067 z "},":":{"ha":428,"x_min":119,"x_max":425,"o":"m 425 578 q 381 470 425 514 q 273 425 337 425 q 164 470 208 425 q 119 578 119 514 q 164 687 119 643 q 273 731 208 731 q 381 687 337 731 q 425 578 425 643 m 425 154 q 381 45 425 90 q 273 1 337 1 q 164 45 208 1 q 119 154 119 90 q 164 262 119 218 q 273 306 208 306 q 381 262 337 306 q 425 154 425 218 z "},"=":{"ha":888,"x_min":63,"x_max":823,"o":"m 823 198 l 63 198 l 63 326 l 823 326 l 823 198 m 823 484 l 63 484 l 63 612 l 823 612 l 823 484 z "},"[":{"ha":410,"x_min":140,"x_max":403,"o":"m 403 -288 l 140 -288 l 140 1053 l 403 1053 l 403 941 l 256 941 l 256 -175 l 403 -175 l 403 -288 z "},"]":{"ha":410,"x_min":146,"x_max":410,"o":"m 146 1053 l 410 1053 l 410 -288 l 146 -288 l 146 -176 l 293 -176 l 293 940 l 146 940 l 146 1053 z "},"{":{"ha":665,"x_min":195,"x_max":564,"o":"m 564 -217 q 395 -130 461 -199 q 326 45 326 -57 q 343 165 326 86 q 356 241 356 222 q 307 351 356 307 q 195 401 262 393 l 195 427 q 357 575 357 462 q 346 658 357 607 q 328 785 328 743 q 396 960 328 888 q 564 1046 461 1029 l 564 1019 q 459 969 500 1009 q 414 864 414 926 q 422 786 414 833 q 443 644 443 677 q 249 416 443 492 q 441 178 441 337 q 422 57 441 145 q 411 -35 411 1 q 564 -193 411 -157 l 564 -217 z "},"}":{"ha":665,"x_min":102,"x_max":471,"o":"m 471 402 q 309 253 309 367 q 319 170 309 218 q 338 43 338 81 q 270 -131 338 -59 q 102 -217 205 -200 l 102 -190 q 207 -140 165 -180 q 252 -35 252 -98 q 243 42 252 -3 q 223 185 223 153 q 416 413 223 336 q 225 650 225 492 q 243 772 225 687 q 255 863 255 831 q 102 1021 255 985 l 102 1046 q 271 958 205 1027 q 340 784 340 886 q 322 664 340 745 q 310 587 310 610 q 359 477 310 522 q 471 427 403 438 l 471 402 z "},"«":{"ha":579,"x_min":47,"x_max":545,"o":"m 545 87 l 482 87 l 252 359 l 482 625 l 541 625 l 388 359 l 545 87 m 337 87 l 277 87 l 47 359 l 278 625 l 337 625 l 184 359 l 337 87 z "},"»":{"ha":579,"x_min":34,"x_max":532,"o":"m 532 359 l 302 87 l 242 87 l 395 359 l 242 625 l 301 625 l 532 359 m 328 359 l 97 87 l 34 87 l 191 359 l 38 625 l 97 625 l 328 359 z "},"×":{"ha":642,"x_min":89,"x_max":544,"o":"m 544 149 l 505 110 l 317 296 l 129 110 l 89 149 l 275 337 l 89 526 l 131 564 l 317 376 l 505 564 l 544 526 l 355 337 l 544 149 z "},"÷":{"ha":888,"x_min":63,"x_max":823,"o":"m 823 273 l 63 273 l 63 401 l 823 401 l 823 273 m 439 513 q 343 552 382 513 q 304 648 304 591 q 343 743 304 705 q 439 782 382 782 q 535 743 496 782 q 574 648 574 705 q 535 552 574 591 q 439 513 496 513 m 439 -132 q 343 -93 382 -132 q 304 3 304 -54 q 343 99 304 60 q 439 138 382 138 q 536 99 497 138 q 574 3 574 60 q 535 -93 574 -54 q 439 -132 496 -132 z "},"‌":{"ha":22,"x_min":0,"x_max":0,"o":""},"‍":{"ha":22,"x_min":0,"x_max":0,"o":""},"‎":{"ha":22,"x_min":0,"x_max":147,"o":"m 147 783 l 82 717 l 65 730 l 109 774 l 22 774 l 22 0 l 0 0 l 0 794 l 106 794 l 65 835 l 82 850 l 147 783 z "},"‏":{"ha":22,"x_min":-126,"x_max":22,"o":"m 22 0 l 0 0 l 0 774 l -86 774 l -45 730 l -58 717 l -126 783 l -58 850 l -45 835 l -85 794 l 22 794 l 22 0 z "},"‘":{"ha":333,"x_min":85,"x_max":317,"o":"m 317 1008 q 212 909 256 968 q 161 779 161 841 q 182 712 161 741 q 243 744 209 744 q 313 676 313 744 q 280 614 313 636 q 210 593 251 593 q 119 628 154 593 q 85 718 85 662 q 158 909 85 813 q 317 1045 224 996 l 317 1008 z "},"’":{"ha":333,"x_min":71,"x_max":301,"o":"m 301 918 q 229 727 301 821 q 71 591 167 647 l 71 629 q 226 859 226 739 q 203 927 226 901 q 139 894 181 894 q 92 913 111 894 q 73 960 73 932 q 106 1023 73 999 q 176 1044 135 1044 q 268 1010 235 1044 q 301 918 301 976 z "},"“":{"ha":441,"x_min":47,"x_max":388,"o":"m 388 777 q 360 760 379 773 q 325 695 325 725 q 380 619 380 680 q 359 566 380 589 q 307 544 338 544 q 250 572 272 544 q 231 635 231 598 q 368 878 231 771 q 369 815 368 822 q 388 777 372 788 m 205 777 q 177 760 196 773 q 142 695 142 725 q 197 619 197 680 q 176 566 197 589 q 124 544 155 544 q 67 572 89 544 q 47 635 47 598 q 185 878 47 771 q 186 815 185 822 q 205 777 189 788 z "},"”":{"ha":441,"x_min":53,"x_max":393,"o":"m 393 781 q 256 537 393 644 q 255 600 256 593 q 236 638 252 627 q 264 656 245 642 q 299 720 299 690 q 243 796 243 735 q 264 849 243 827 q 317 871 286 871 q 374 844 353 871 q 393 781 393 819 m 210 781 q 73 537 210 644 q 72 600 73 593 q 53 638 69 627 q 81 656 62 642 q 116 720 116 690 q 60 796 60 735 q 81 849 60 827 q 134 871 102 871 q 191 844 170 871 q 210 781 210 819 z "},"‹":{"ha":347,"x_min":46,"x_max":310,"o":"m 310 655 l 155 396 l 306 138 l 306 87 l 46 396 l 310 706 l 310 655 z "},"›":{"ha":347,"x_min":43,"x_max":310,"o":"m 310 397 l 43 87 l 43 138 l 200 397 l 50 656 l 50 708 l 310 397 z "},"،":{"ha":428,"x_min":119,"x_max":425,"o":"m 425 157 q 383 46 425 90 q 275 1 340 1 q 160 57 204 1 q 119 180 119 108 q 174 380 119 267 q 285 552 220 473 q 370 625 345 625 q 418 583 418 625 q 364 487 418 562 q 282 317 303 402 q 390 271 353 317 q 425 157 425 229 z "},"؛":{"ha":428,"x_min":119,"x_max":425,"o":"m 425 564 q 383 453 425 497 q 275 408 340 408 q 160 463 203 408 q 119 587 119 514 q 174 786 119 673 q 285 958 220 880 q 370 1031 345 1031 q 418 989 418 1031 q 364 893 418 968 q 282 724 303 808 q 391 678 353 724 q 425 564 425 635 m 425 154 q 381 45 425 90 q 273 1 337 1 q 164 45 208 1 q 119 154 119 90 q 164 262 119 218 q 273 306 208 306 q 381 262 337 306 q 425 154 425 218 z "},"؟":{"ha":557,"x_min":119,"x_max":553,"o":"m 553 840 q 491 681 553 740 l 409 757 q 441 840 441 789 q 422 888 441 869 q 374 907 403 907 q 325 890 345 907 q 305 844 305 872 q 353 743 305 798 l 443 642 q 491 495 491 574 q 445 390 491 433 q 338 347 399 347 q 173 422 254 347 l 236 507 q 321 473 274 473 q 358 495 358 473 q 296 561 358 509 q 181 674 217 628 q 119 832 119 753 q 165 958 119 901 q 352 1038 229 1038 q 553 840 553 1038 m 480 151 q 437 43 480 87 q 330 0 393 0 q 222 43 266 0 q 179 151 179 87 q 222 258 179 214 q 330 302 266 302 q 437 258 393 302 q 480 151 480 214 z "},"ـ":{"ha":850,"x_min":-20,"x_max":875,"o":"m 875 1 l -20 1 l -20 309 l 875 309 l 875 1 z "},"ً":{"ha":0,"x_min":7,"x_max":280,"o":"m 280 1415 l 279 1340 l 8 1204 l 8 1278 l 280 1415 m 279 1217 l 7 1082 l 7 1156 l 279 1293 l 279 1217 z "},"ٌ":{"ha":0,"x_min":-5,"x_max":294,"o":"m 155 1128 q 26 1082 87 1095 l 17 1135 q 60 1156 31 1141 q 62 1181 64 1168 q 45 1196 58 1196 q 25 1192 39 1196 q 5 1187 12 1187 q -5 1205 -5 1187 q 16 1246 -5 1225 q 58 1267 37 1267 q 115 1202 115 1267 q 113 1177 115 1191 q 161 1206 148 1193 q 114 1281 114 1230 q 123 1325 114 1301 q 206 1387 145 1387 q 237 1381 222 1387 q 294 1293 294 1360 q 155 1128 294 1198 m 237 1288 q 202 1323 237 1324 q 170 1289 170 1322 q 201 1257 170 1259 q 237 1288 237 1253 z "},"ٍ":{"ha":0,"x_min":8,"x_max":281,"o":"m 281 -454 l 279 -529 l 9 -665 l 9 -591 l 281 -454 m 279 -652 l 8 -787 l 8 -713 l 279 -576 l 279 -652 z "},"َ":{"ha":0,"x_min":10,"x_max":282,"o":"m 282 1217 l 10 1082 l 10 1156 l 282 1293 l 282 1217 z "},"ُ":{"ha":0,"x_min":27,"x_max":303,"o":"m 161 1122 q 35 1078 75 1079 l 27 1132 q 167 1199 129 1161 q 121 1278 121 1223 q 130 1322 121 1299 q 215 1383 151 1383 q 246 1378 231 1383 q 303 1289 303 1358 q 161 1122 303 1194 m 246 1283 q 212 1318 246 1319 q 180 1284 180 1316 q 211 1251 180 1253 q 246 1283 246 1249 z "},"ِ":{"ha":0,"x_min":0,"x_max":272,"o":"m 272 -524 l 0 -660 l 0 -585 l 272 -449 l 272 -524 z "},"ّ":{"ha":0,"x_min":-1,"x_max":294,"o":"m 294 1326 q 202 1124 294 1124 q 154 1145 172 1124 q 70 1076 124 1076 q -1 1172 -1 1076 q 9 1252 -1 1208 l 75 1262 q 60 1190 60 1217 q 77 1162 60 1162 q 121 1280 109 1162 l 189 1301 q 186 1259 186 1277 q 202 1211 186 1211 q 230 1238 225 1211 q 234 1308 231 1242 l 294 1326 z "},"ْ":{"ha":0,"x_min":37,"x_max":245,"o":"m 245 1222 q 219 1130 245 1166 q 135 1090 190 1090 q 66 1114 94 1090 q 37 1180 37 1140 q 58 1277 37 1223 q 124 1344 85 1344 q 200 1315 163 1344 q 245 1222 245 1279 m 196 1204 q 170 1246 196 1226 q 120 1267 144 1267 q 86 1219 86 1267 q 146 1179 86 1179 q 196 1204 196 1179 z "},"":{"ha":0,"x_min":10,"x_max":282,"o":"m 282 918 l 10 783 l 10 857 l 282 994 l 282 918 z "},"":{"ha":0,"x_min":27,"x_max":303,"o":"m 161 826 q 35 782 75 783 l 27 836 q 167 903 129 865 q 121 981 121 927 q 130 1025 121 1002 q 215 1087 151 1087 q 246 1082 231 1087 q 303 993 303 1061 q 161 826 303 898 m 246 987 q 212 1021 246 1023 q 180 988 180 1020 q 211 955 180 957 q 246 987 246 952 z "},"":{"ha":0,"x_min":39,"x_max":248,"o":"m 248 921 q 221 829 248 865 q 137 789 192 789 q 68 813 96 789 q 39 879 39 839 q 60 976 39 922 q 126 1043 87 1043 q 202 1014 165 1043 q 248 921 248 978 m 198 903 q 172 945 198 925 q 122 966 146 966 q 88 918 88 966 q 148 878 88 878 q 198 903 198 878 z "},"":{"ha":0,"x_min":4,"x_max":277,"o":"m 277 1116 l 275 1041 l 5 905 l 5 979 l 277 1116 m 275 918 l 4 783 l 4 857 l 275 994 l 275 918 z "},"":{"ha":0,"x_min":-9,"x_max":291,"o":"m 151 830 q 22 783 83 796 l 14 837 q 57 858 28 843 q 58 882 61 870 q 42 897 55 897 q 22 893 35 897 q 2 889 8 889 q -9 907 -9 889 q 13 947 -9 926 q 54 968 34 968 q 111 904 111 968 q 109 879 111 892 q 157 907 144 895 q 111 983 111 932 q 119 1027 111 1002 q 203 1088 142 1088 q 233 1083 218 1088 q 291 994 291 1062 q 151 830 291 900 m 233 989 q 199 1025 233 1026 q 167 990 167 1023 q 198 958 167 961 q 233 989 233 955 z "},"":{"ha":0,"x_min":-1,"x_max":294,"o":"m 294 1028 q 202 825 294 825 q 154 846 172 825 q 70 777 124 777 q -1 873 -1 777 q 9 954 -1 909 l 75 964 q 60 892 60 919 q 77 864 60 864 q 121 982 109 864 l 189 1003 q 186 960 186 979 q 202 913 186 913 q 230 940 225 913 q 234 1010 231 944 l 294 1028 z "},"":{"ha":0,"x_min":-54,"x_max":218,"o":"m 218 -416 l -54 -553 l -54 -478 l 218 -342 l 218 -416 z "},"":{"ha":0,"x_min":-49,"x_max":224,"o":"m 224 -302 l 222 -377 l -48 -513 l -48 -439 l 224 -302 m 222 -500 l -49 -635 l -49 -561 l 222 -425 l 222 -500 z "},"":{"ha":0,"x_min":0,"x_max":296,"o":"m 296 1027 q 203 825 296 825 q 155 846 174 825 q 71 777 125 777 q 0 873 0 777 q 10 953 0 909 l 76 963 q 61 891 61 918 q 78 863 61 863 q 122 981 111 863 l 190 1002 q 188 960 188 978 q 203 912 188 912 q 231 939 227 912 q 235 1009 232 943 l 296 1027 m 286 1126 l 14 991 l 14 1065 l 286 1202 l 286 1126 z "},"":{"ha":0,"x_min":-1,"x_max":294,"o":"m 294 1028 q 202 825 294 825 q 154 846 172 825 q 70 777 124 777 q -1 873 -1 777 q 9 954 -1 909 l 75 964 q 60 892 60 919 q 77 864 60 864 q 121 982 109 864 l 189 1003 q 186 960 186 979 q 202 913 186 913 q 230 940 225 913 q 234 1010 231 944 l 294 1028 m 147 1062 q 21 1018 60 1018 l 14 1072 q 154 1139 113 1097 q 108 1217 108 1162 q 117 1261 108 1237 q 202 1323 139 1323 q 232 1318 218 1323 q 290 1229 290 1296 q 147 1062 290 1135 m 232 1223 q 199 1257 232 1259 q 165 1224 165 1256 q 197 1191 165 1194 q 232 1223 232 1187 z "},"":{"ha":0,"x_min":-4,"x_max":292,"o":"m 292 1028 q 199 825 292 825 q 151 846 171 825 q 66 777 122 777 q -4 873 -4 777 q 6 954 -4 909 l 72 964 q 57 892 57 919 q 74 864 57 864 q 118 982 104 864 l 185 1003 q 184 966 184 982 q 199 913 184 913 q 227 940 222 913 q 231 1010 229 950 l 292 1028 m 277 1334 l 277 1259 l 5 1123 l 5 1198 l 277 1334 m 277 1137 l 4 1000 l 4 1075 l 277 1211 l 277 1137 z "},"":{"ha":0,"x_min":-5,"x_max":295,"o":"m 293 1029 q 201 826 293 826 q 153 847 171 826 q 68 778 123 778 q -3 874 -3 778 q 7 954 -3 910 l 73 964 q 58 892 58 920 q 75 865 58 865 q 119 983 108 865 l 187 1004 q 185 961 185 979 q 201 913 185 913 q 229 941 224 913 q 233 1010 229 945 l 293 1029 m 155 1079 q 26 1032 87 1045 l 18 1086 q 61 1107 32 1092 q 62 1131 65 1119 q 46 1146 59 1146 q 26 1142 39 1146 q 6 1138 12 1138 q -5 1156 -5 1138 q 17 1196 -5 1175 q 58 1217 38 1217 q 115 1153 115 1217 q 113 1128 115 1141 q 161 1156 149 1143 q 115 1232 115 1181 q 123 1276 115 1251 q 207 1337 146 1337 q 237 1332 222 1337 q 295 1243 295 1311 q 155 1079 295 1149 m 237 1238 q 203 1274 237 1275 q 171 1239 171 1272 q 202 1207 171 1210 q 237 1238 237 1204 z "},"":{"ha":0,"x_min":9,"x_max":305,"o":"m 305 1242 q 213 1039 305 1039 q 165 1060 183 1039 q 81 991 135 991 q 9 1087 9 991 q 20 1167 9 1123 l 85 1177 q 71 1105 71 1133 q 87 1078 71 1078 q 132 1196 120 1078 l 199 1217 q 197 1174 197 1192 q 213 1126 197 1126 q 241 1154 235 1126 q 245 1223 241 1158 l 305 1242 m 302 1019 l 300 944 l 30 808 l 30 882 l 302 1019 z "},"":{"ha":0,"x_min":10,"x_max":306,"o":"m 306 1342 q 214 1139 306 1139 q 165 1160 184 1139 q 81 1091 136 1091 q 10 1187 10 1091 q 20 1267 10 1223 l 86 1278 q 71 1206 71 1233 q 88 1178 71 1178 q 132 1296 121 1178 l 200 1317 q 198 1274 198 1293 q 214 1227 198 1227 q 241 1254 236 1227 q 245 1324 242 1258 l 306 1342 m 302 1119 l 301 1044 l 31 908 l 31 983 l 302 1119 m 301 922 l 30 786 l 30 861 l 301 997 l 301 922 z "},"ﱠ":{"ha":0,"x_min":12,"x_max":308,"o":"m 301 1342 q 209 1139 301 1139 q 161 1160 179 1139 q 77 1091 131 1091 q 5 1187 5 1091 q 16 1267 5 1223 l 81 1278 q 66 1206 66 1233 q 83 1178 66 1178 q 127 1296 116 1178 l 195 1317 q 193 1274 193 1293 q 209 1227 193 1227 q 237 1254 232 1227 q 241 1324 237 1258 l 301 1342 m 292 1441 l 20 1305 l 20 1380 l 292 1516 l 292 1441 z "},"ﱡ":{"ha":0,"x_min":10,"x_max":306,"o":"m 294 1348 q 202 1145 294 1145 q 154 1166 172 1145 q 70 1097 124 1097 q -1 1194 -1 1097 q 9 1274 -1 1230 l 75 1284 q 60 1212 60 1239 q 77 1184 60 1184 q 121 1302 109 1184 l 189 1323 q 186 1280 186 1299 q 202 1233 186 1233 q 230 1260 225 1233 q 234 1330 231 1264 l 294 1348 m 147 1382 q 21 1338 60 1338 l 14 1392 q 154 1459 113 1417 q 108 1537 108 1482 q 117 1581 108 1557 q 202 1643 139 1643 q 232 1638 218 1643 q 290 1549 290 1616 q 147 1382 290 1455 m 232 1543 q 199 1577 232 1579 q 165 1544 165 1576 q 197 1511 165 1514 q 232 1543 232 1508 z "},"":{"ha":0,"x_min":18,"x_max":317,"o":"m 302 1381 q 210 1178 302 1178 q 161 1199 182 1178 q 77 1130 133 1130 q 7 1225 7 1130 q 17 1306 7 1262 l 83 1316 q 68 1244 68 1272 q 85 1217 68 1217 q 129 1335 115 1217 l 196 1356 q 195 1319 195 1335 q 210 1265 195 1265 q 238 1293 233 1265 q 241 1362 240 1303 l 302 1381 m 288 1687 l 288 1612 l 16 1476 l 16 1550 l 288 1687 m 288 1489 l 15 1353 l 15 1428 l 288 1564 l 288 1489 z "},"ﱞ":{"ha":0,"x_min":16,"x_max":315,"o":"m 293 1371 q 201 1168 293 1168 q 153 1189 171 1168 q 68 1120 123 1120 q -3 1216 -3 1120 q 7 1296 -3 1252 l 73 1306 q 58 1234 58 1261 q 75 1206 58 1206 q 119 1324 108 1206 l 187 1345 q 185 1303 185 1321 q 201 1255 185 1255 q 229 1282 224 1255 q 233 1352 229 1286 l 293 1371 m 155 1421 q 26 1374 87 1387 l 18 1428 q 61 1449 32 1434 q 62 1473 65 1461 q 46 1488 59 1488 q 26 1484 39 1488 q 6 1480 12 1480 q -5 1497 -5 1480 q 17 1538 -5 1517 q 58 1559 38 1559 q 115 1495 115 1559 q 113 1470 115 1483 q 161 1498 149 1485 q 115 1573 115 1522 q 123 1617 115 1593 q 207 1679 146 1679 q 237 1674 222 1679 q 295 1585 295 1653 q 155 1421 295 1491 m 237 1580 q 203 1615 237 1617 q 171 1581 171 1614 q 202 1549 171 1552 q 237 1580 237 1546 z "},"ﱢ":{"ha":0,"x_min":15,"x_max":311,"o":"m 311 1632 q 218 1430 311 1430 q 170 1451 189 1430 q 86 1381 140 1381 q 15 1478 15 1381 q 25 1558 15 1514 l 91 1568 q 76 1496 76 1523 q 93 1468 76 1468 q 137 1586 125 1468 l 205 1607 q 203 1565 203 1583 q 218 1517 203 1517 q 246 1544 241 1517 q 250 1614 247 1548 l 311 1632 m 307 1409 l 306 1335 l 35 1198 l 35 1273 l 307 1409 z "},"ﱟ":{"ha":0,"x_min":10,"x_max":306,"o":"m 306 1716 q 214 1514 306 1514 q 165 1535 184 1514 q 81 1466 136 1466 q 10 1562 10 1466 q 20 1642 10 1598 l 86 1652 q 71 1580 71 1607 q 88 1552 71 1552 q 132 1670 121 1552 l 200 1691 q 198 1649 198 1667 q 214 1601 198 1601 q 241 1628 236 1601 q 245 1698 242 1632 l 306 1716 m 302 1493 l 301 1419 l 31 1282 l 31 1357 l 302 1493 m 301 1296 l 30 1160 l 30 1235 l 301 1371 l 301 1296 z "},"ء":{"ha":538,"x_min":82,"x_max":535,"o":"m 535 333 l 511 180 q 82 -19 280 114 l 90 99 q 201 178 160 157 q 139 214 166 180 q 113 283 113 246 q 167 446 113 364 q 309 539 228 539 q 418 503 367 539 q 476 435 460 471 q 483 407 483 418 q 460 387 483 387 q 419 394 447 387 q 376 401 391 401 q 290 385 331 401 q 238 323 238 363 q 338 273 238 273 q 418 293 359 273 l 535 333 z "},"آ":{"ha":656,"x_min":52,"x_max":689,"o":"m 689 1096 q 579 984 689 1043 q 347 922 465 922 q 251 938 314 922 q 157 953 188 953 q 118 919 138 953 q 83 886 98 886 q 52 936 52 886 q 96 1045 52 970 q 182 1128 145 1128 q 161 1125 161 1128 q 260 1099 161 1118 q 450 1069 402 1069 q 569 1095 493 1069 q 663 1121 646 1121 q 689 1096 689 1121 m 481 891 q 477 597 481 786 q 465 314 471 361 q 430 182 459 262 q 374 57 402 104 q 318 -1 340 -1 q 274 70 293 -1 q 235 802 246 174 l 446 912 q 471 921 463 921 q 481 891 481 921 z "},"ﺂ":{"ha":553,"x_min":44,"x_max":682,"o":"m 682 1096 q 572 984 682 1043 q 340 922 457 922 q 244 938 307 922 q 150 953 181 953 q 112 919 132 953 q 77 886 91 886 q 44 936 44 886 q 89 1045 44 969 q 174 1128 138 1128 q 155 1125 155 1128 q 253 1099 155 1118 q 444 1069 396 1069 q 561 1095 486 1069 q 657 1121 637 1121 q 682 1096 682 1121 m 574 1 l 500 1 q 246 267 246 1 q 220 713 246 555 q 231 758 214 747 l 428 898 q 456 911 447 911 q 465 896 465 911 l 465 407 q 551 308 465 308 l 574 308 l 574 1 z "},"أ":{"ha":333,"x_min":58,"x_max":347,"o":"m 332 891 q 326 597 332 815 q 315 314 320 357 q 279 178 309 262 q 169 -1 214 -1 q 125 70 144 -1 q 85 802 97 174 l 296 912 q 321 921 313 921 q 332 891 332 921 m 347 1074 l 332 977 q 58 849 184 934 l 62 924 q 134 975 105 960 q 95 997 111 976 q 79 1042 79 1018 q 113 1146 79 1093 q 203 1206 151 1206 q 267 1187 235 1206 q 310 1139 298 1168 q 314 1122 314 1129 q 300 1109 314 1109 q 273 1113 291 1109 q 246 1118 255 1118 q 191 1107 215 1118 q 157 1067 157 1093 q 221 1035 157 1035 q 273 1048 235 1035 l 347 1074 z "},"ﺄ":{"ha":408,"x_min":52,"x_max":429,"o":"m 429 1 l 356 1 q 102 267 102 1 q 75 713 102 551 q 86 758 70 747 l 283 898 q 311 911 302 911 q 320 896 320 911 l 320 407 q 408 308 320 308 l 429 308 l 429 1 m 340 1074 l 326 977 q 52 849 178 934 l 56 924 q 127 975 100 960 q 87 997 104 976 q 71 1042 71 1018 q 105 1146 71 1094 q 196 1206 144 1206 q 260 1187 228 1206 q 303 1139 292 1168 q 307 1122 307 1129 q 293 1109 307 1109 q 266 1113 284 1109 q 239 1118 248 1118 q 184 1107 208 1118 q 150 1067 150 1093 q 214 1035 150 1035 q 267 1048 229 1035 q 340 1074 332 1072 z "},"ؤ":{"ha":599,"x_min":54,"x_max":596,"o":"m 596 135 q 469 -337 596 -203 q 429 -353 454 -353 l 111 -353 q 54 -307 54 -353 q 79 -271 54 -282 q 290 -152 166 -229 q 459 -6 456 -47 q 279 10 321 -6 q 189 176 189 45 q 229 397 189 294 q 389 541 283 541 q 559 386 507 541 q 596 135 596 279 m 454 254 q 422 295 454 275 q 369 313 393 313 q 306 266 306 313 q 382 240 306 240 q 454 254 454 240 m 479 846 l 465 749 q 191 621 315 705 l 195 696 q 267 748 237 731 q 227 769 243 749 q 211 814 211 790 q 244 919 211 867 q 336 978 282 978 q 399 959 368 978 q 442 912 430 941 q 447 894 447 901 q 432 881 447 881 q 406 885 423 881 q 379 890 388 890 q 323 880 349 890 q 290 840 290 866 q 354 807 290 807 q 406 821 367 807 l 479 846 z "},"ﺆ":{"ha":644,"x_min":54,"x_max":663,"o":"m 663 1 l 590 1 q 469 -337 572 -227 q 429 -353 454 -353 l 111 -353 q 54 -307 54 -353 q 79 -271 54 -282 q 290 -152 166 -229 q 459 -6 456 -47 q 280 10 322 -6 q 189 176 189 45 q 229 397 189 294 q 389 541 283 541 q 583 309 536 541 l 663 309 l 663 1 m 450 251 q 418 292 450 273 q 366 311 389 311 q 304 264 304 311 q 380 238 304 238 q 450 251 450 238 m 479 846 l 465 749 q 191 621 315 705 l 195 696 q 267 748 237 731 q 227 769 243 749 q 211 814 211 790 q 244 919 211 867 q 336 978 282 978 q 399 959 368 978 q 442 912 430 941 q 447 894 447 901 q 432 881 447 881 q 406 885 423 881 q 379 890 388 890 q 323 880 349 890 q 290 840 290 866 q 354 807 290 807 q 406 821 367 807 l 479 846 z "},"إ":{"ha":332,"x_min":54,"x_max":347,"o":"m 347 -214 l 332 -313 q 58 -440 184 -355 l 62 -365 q 134 -314 104 -330 q 95 -292 112 -313 q 79 -248 79 -271 q 113 -142 79 -195 q 203 -83 151 -83 q 266 -102 235 -83 q 310 -149 298 -121 q 315 -168 315 -161 q 300 -180 315 -180 q 273 -176 290 -180 q 245 -172 255 -172 q 190 -182 216 -172 q 157 -222 157 -196 q 221 -254 157 -254 q 273 -241 235 -254 l 347 -214 m 333 354 q 315 203 333 294 q 273 57 296 106 q 219 -3 244 -3 q 172 70 192 -3 q 54 776 144 172 l 259 999 q 285 1020 278 1020 q 294 1001 290 1020 q 331 679 324 866 q 333 354 333 622 z "},"ﺈ":{"ha":411,"x_min":79,"x_max":437,"o":"m 406 -214 l 391 -313 q 117 -440 242 -355 l 121 -365 q 193 -314 165 -330 q 154 -292 170 -313 q 137 -248 137 -271 q 171 -142 137 -195 q 262 -83 209 -83 q 325 -102 293 -83 q 368 -149 357 -121 q 373 -168 373 -161 q 359 -180 373 -180 q 332 -176 349 -180 q 304 -172 314 -172 q 249 -182 275 -172 q 216 -222 216 -196 q 280 -254 216 -254 q 332 -241 294 -254 l 406 -214 m 437 1 l 364 1 q 110 267 110 1 q 102 565 110 380 q 83 823 93 760 q 94 867 79 854 l 292 1006 q 319 1021 312 1021 q 328 1004 328 1021 l 328 407 q 416 308 328 308 l 437 308 l 437 1 z "},"ئ":{"ha":1010,"x_min":82,"x_max":1008,"o":"m 1008 81 q 486 -347 1008 -347 q 82 -3 82 -347 q 111 183 82 66 q 196 330 148 330 q 252 263 252 330 q 245 200 252 242 q 238 136 238 157 q 564 -52 238 -52 q 876 -2 732 -52 q 901 19 901 7 q 866 37 901 33 l 641 60 q 501 185 501 87 q 579 438 501 294 q 811 617 676 617 q 958 532 897 617 q 1008 408 1008 463 q 987 341 1008 341 q 913 362 979 341 q 807 384 847 384 q 689 349 737 384 q 650 297 650 320 q 743 269 650 281 q 903 247 884 251 q 1008 81 1008 224 m 394 602 l 379 503 q 104 376 231 460 l 109 451 q 181 502 154 488 q 142 524 159 503 q 125 568 125 545 q 159 673 125 621 q 250 732 197 732 q 313 714 281 732 q 357 667 345 695 q 361 649 361 655 q 347 635 361 635 q 320 640 338 635 q 293 644 302 644 q 237 634 262 644 q 203 594 203 620 q 268 562 203 562 q 320 575 282 562 l 394 602 z "},"ﺊ":{"ha":1090,"x_min":82,"x_max":1111,"o":"m 1111 1 l 1069 1 q 1020 33 1048 1 q 947 94 985 75 q 768 126 881 126 q 661 111 703 126 q 636 94 636 102 q 713 77 636 77 q 883 64 837 77 q 976 -57 976 37 q 504 -348 976 -348 q 138 -220 235 -348 q 82 -12 82 -146 q 120 182 82 81 q 203 290 160 290 q 256 230 256 290 q 250 168 256 209 q 243 106 243 127 q 577 -86 243 -86 q 850 -66 754 -86 q 886 -47 886 -58 q 850 -33 886 -36 q 724 -28 789 -28 q 584 -16 623 -28 q 518 73 518 6 q 718 271 518 212 q 1026 309 846 309 l 1111 309 l 1111 1 m 394 602 l 379 503 q 104 376 231 460 l 109 451 q 181 502 154 488 q 142 524 159 503 q 125 568 125 545 q 159 673 125 621 q 250 732 197 732 q 313 714 281 732 q 357 667 345 695 q 361 649 361 655 q 347 635 361 635 q 320 640 338 635 q 293 644 302 644 q 237 634 262 644 q 203 594 203 620 q 268 562 203 562 q 320 575 282 562 l 394 602 z "},"ﺋ":{"ha":319,"x_min":-20,"x_max":317,"o":"m 317 357 q 264 91 317 168 q 33 1 201 1 l -20 1 l -20 309 l 134 309 q 174 331 174 309 q 162 357 174 342 q 54 471 120 412 q 54 495 43 480 l 180 678 q 195 693 190 693 q 212 680 201 693 q 317 357 317 549 m 303 969 l 288 871 q 14 743 140 828 l 18 819 q 90 870 62 854 q 50 891 66 871 q 34 936 34 912 q 68 1041 34 989 q 159 1100 106 1100 q 223 1081 191 1100 q 266 1034 254 1063 q 270 1017 270 1024 q 255 1003 270 1003 q 228 1007 246 1003 q 201 1012 210 1012 q 146 1002 171 1012 q 113 962 113 987 q 177 930 113 930 q 229 943 191 930 l 303 969 z "},"ﺌ":{"ha":391,"x_min":-19,"x_max":412,"o":"m 412 1 l 359 1 q 208 91 262 1 q 47 1 155 1 l -19 1 l -19 309 l 24 309 q 125 352 96 309 q 152 431 132 362 q 199 475 165 475 q 241 431 231 475 q 263 352 256 365 q 359 309 289 309 l 412 309 l 412 1 m 337 846 l 322 749 q 47 621 172 705 l 52 696 q 124 748 93 730 q 84 770 101 749 q 68 814 68 791 q 102 919 68 867 q 193 978 140 978 q 256 959 224 978 q 300 912 288 941 q 304 895 304 901 q 290 881 304 881 q 263 885 281 881 q 237 890 245 890 q 180 880 206 890 q 146 840 146 866 q 212 807 146 807 q 263 821 226 807 q 337 846 327 844 z "},"ا":{"ha":360,"x_min":81,"x_max":360,"o":"m 360 354 q 342 203 360 294 q 300 57 323 106 q 246 -3 271 -3 q 199 70 219 -3 q 81 776 172 172 l 286 999 q 312 1020 305 1020 q 321 1001 317 1020 q 358 679 351 866 q 360 354 360 622 z "},"ﺎ":{"ha":418,"x_min":79,"x_max":437,"o":"m 437 1 l 364 1 q 110 267 110 1 q 102 565 110 380 q 83 823 93 760 q 94 867 79 854 l 292 1006 q 319 1021 312 1021 q 328 1004 328 1021 l 328 407 q 416 308 328 308 l 437 308 l 437 1 z "},"ب":{"ha":1029,"x_min":83,"x_max":1027,"o":"m 1027 382 q 876 52 1027 145 q 512 -19 759 -19 q 213 35 310 -19 q 83 290 83 106 q 108 445 83 368 q 174 530 136 530 q 213 461 214 530 q 252 345 212 380 q 522 285 319 285 q 751 288 702 285 q 862 314 829 294 q 878 332 878 324 q 865 357 878 339 q 771 437 840 391 q 765 458 758 446 l 880 666 q 901 668 888 680 q 1027 382 1027 555 m 659 -197 q 659 -216 669 -206 l 568 -307 q 548 -307 558 -317 l 456 -218 q 457 -193 444 -206 l 542 -108 q 566 -108 553 -96 l 659 -197 z "},"ﺐ":{"ha":1124,"x_min":83,"x_max":1144,"o":"m 1144 1 l 1099 1 q 931 118 988 1 q 444 -39 768 -39 q 178 32 265 -39 q 83 285 83 111 q 103 427 83 354 q 165 515 127 515 q 212 448 208 515 q 252 324 216 361 q 507 258 316 258 q 838 311 709 258 q 982 412 920 346 q 1045 465 1032 465 q 1081 420 1081 465 q 1070 373 1081 406 q 1050 326 1059 340 q 1101 309 1064 309 l 1144 309 l 1144 1 m 625 -197 q 625 -216 635 -206 l 533 -307 q 513 -307 524 -317 l 421 -218 q 423 -193 410 -207 l 509 -108 q 531 -108 519 -97 l 625 -197 z "},"ﺑ":{"ha":319,"x_min":-20,"x_max":317,"o":"m 317 357 q 264 91 317 168 q 33 1 201 1 l -20 1 l -20 309 l 134 309 q 174 331 174 309 q 162 357 174 342 q 54 471 120 412 q 54 495 43 480 l 180 678 q 195 693 190 693 q 212 680 201 693 q 317 357 317 549 m 268 -197 q 268 -216 279 -205 l 176 -307 q 157 -307 167 -317 l 64 -218 q 66 -193 53 -207 l 152 -108 q 174 -108 163 -97 l 268 -197 z "},"ﺒ":{"ha":391,"x_min":-19,"x_max":412,"o":"m 412 1 l 359 1 q 208 91 262 1 q 47 1 155 1 l -19 1 l -19 309 l 24 309 q 125 352 96 309 q 152 431 132 362 q 199 475 165 475 q 241 431 231 475 q 263 352 256 365 q 359 309 289 309 l 412 309 l 412 1 m 309 -197 q 309 -216 319 -206 l 218 -307 q 198 -307 208 -317 l 106 -218 q 108 -193 94 -207 l 193 -108 q 216 -108 204 -96 l 309 -197 z "},"پ":{"ha":1029,"x_min":83,"x_max":1027,"o":"m 1027 382 q 876 52 1027 145 q 512 -19 759 -19 q 213 35 310 -19 q 83 290 83 106 q 108 445 83 368 q 174 530 136 530 q 213 461 214 530 q 252 345 212 380 q 522 285 319 285 q 751 288 702 285 q 862 314 829 294 q 878 332 878 324 q 865 357 878 339 q 771 437 840 391 q 765 458 758 446 l 880 666 q 901 668 888 680 q 1027 382 1027 555 m 699 -195 q 699 -212 707 -203 l 618 -291 q 602 -291 610 -299 l 523 -213 l 446 -291 q 437 -294 441 -294 q 429 -291 434 -294 l 348 -212 q 349 -193 339 -203 l 424 -117 q 444 -117 433 -108 l 524 -193 l 597 -117 q 616 -117 606 -108 l 699 -195 m 613 -351 q 612 -366 621 -358 l 532 -446 q 524 -450 528 -450 q 515 -446 519 -450 l 435 -367 q 437 -347 427 -358 l 511 -272 q 531 -272 521 -262 l 613 -351 z "},"ﭗ":{"ha":1124,"x_min":83,"x_max":1144,"o":"m 1144 1 l 1099 1 q 931 118 988 1 q 444 -39 768 -39 q 178 32 265 -39 q 83 285 83 111 q 103 427 83 354 q 165 515 127 515 q 212 448 208 515 q 252 324 216 361 q 507 258 316 258 q 838 311 709 258 q 982 412 920 346 q 1045 465 1032 465 q 1081 420 1081 465 q 1070 373 1081 406 q 1050 326 1059 340 q 1101 309 1064 309 l 1144 309 l 1144 1 m 699 -195 q 699 -212 707 -203 l 618 -291 q 602 -291 610 -299 l 523 -213 l 446 -291 q 437 -294 441 -294 q 429 -291 434 -294 l 348 -212 q 349 -193 339 -203 l 424 -117 q 444 -117 433 -108 l 524 -193 l 597 -117 q 616 -117 606 -108 l 699 -195 m 613 -351 q 612 -366 621 -358 l 532 -446 q 524 -450 528 -450 q 515 -446 519 -450 l 435 -367 q 437 -347 427 -358 l 511 -272 q 531 -272 521 -262 l 613 -351 z "},"ﭘ":{"ha":319,"x_min":-20,"x_max":381,"o":"m 317 357 q 264 91 317 168 q 33 1 201 1 l -20 1 l -20 309 l 134 309 q 174 331 174 309 q 162 357 174 342 q 54 471 120 412 q 54 495 43 480 l 180 678 q 195 693 190 693 q 212 680 201 693 q 317 357 317 549 m 374 -163 q 373 -179 381 -171 l 293 -258 q 277 -258 285 -267 l 198 -181 l 119 -258 q 103 -258 111 -267 l 22 -180 q 24 -161 14 -171 l 99 -84 q 118 -84 109 -75 l 198 -161 l 199 -159 l 272 -84 q 292 -84 281 -75 l 374 -163 m 287 -318 q 287 -334 295 -326 l 207 -413 q 191 -413 199 -421 l 109 -334 q 112 -315 101 -326 l 185 -239 q 205 -239 195 -230 l 287 -318 z "},"ﭙ":{"ha":391,"x_min":-19,"x_max":412,"o":"m 412 1 l 359 1 q 208 91 262 1 q 47 1 155 1 l -19 1 l -19 309 l 24 309 q 125 352 96 309 q 152 431 132 362 q 199 475 165 475 q 241 431 231 475 q 263 352 256 365 q 359 309 289 309 l 412 309 l 412 1 m 374 -163 q 373 -179 381 -171 l 293 -258 q 277 -258 285 -267 l 198 -181 l 119 -258 q 103 -258 111 -267 l 22 -180 q 24 -161 14 -171 l 99 -84 q 118 -84 109 -75 l 198 -161 l 199 -159 l 272 -84 q 292 -84 281 -75 l 374 -163 m 287 -318 q 287 -334 295 -326 l 207 -413 q 191 -413 199 -421 l 109 -334 q 112 -315 101 -326 l 185 -239 q 205 -239 195 -230 l 287 -318 z "},"ت":{"ha":1029,"x_min":83,"x_max":1027,"o":"m 1027 382 q 876 52 1027 145 q 512 -19 759 -19 q 213 35 310 -19 q 83 290 83 106 q 108 445 83 368 q 174 530 136 530 q 213 461 214 530 q 252 345 212 380 q 522 285 319 285 q 751 288 702 285 q 862 314 829 294 q 878 332 878 324 q 865 357 878 339 q 771 437 840 391 q 765 458 758 446 l 880 666 q 901 668 888 680 q 1027 382 1027 555 m 679 672 q 678 656 688 665 l 597 576 q 580 576 589 568 l 504 650 l 429 576 q 412 576 420 568 l 331 655 q 333 676 321 665 l 407 751 q 428 751 417 762 l 504 679 l 576 751 q 597 751 586 762 l 679 672 z "},"ﺖ":{"ha":1124,"x_min":83,"x_max":1144,"o":"m 1144 1 l 1099 1 q 931 118 988 1 q 444 -39 768 -39 q 178 32 265 -39 q 83 285 83 111 q 103 427 83 354 q 165 515 127 515 q 212 448 208 515 q 252 324 216 361 q 507 258 316 258 q 838 311 709 258 q 982 412 920 346 q 1045 465 1032 465 q 1081 420 1081 465 q 1070 373 1081 406 q 1050 326 1059 340 q 1101 309 1064 309 l 1144 309 l 1144 1 m 720 672 q 720 656 729 665 l 639 576 q 621 576 630 568 l 545 650 l 470 576 q 452 576 463 567 l 372 655 q 374 676 362 665 l 448 751 q 469 751 458 762 l 545 679 l 616 751 q 637 751 627 762 l 720 672 z "},"ﺗ":{"ha":319,"x_min":-20,"x_max":359,"o":"m 317 357 q 264 91 317 168 q 33 1 201 1 l -20 1 l -20 309 l 134 309 q 174 331 174 309 q 162 357 174 342 q 54 471 120 412 q 54 495 43 480 l 180 678 q 195 693 190 693 q 212 680 201 693 q 317 357 317 549 m 349 882 q 349 865 359 874 l 268 785 q 250 785 259 777 l 174 860 l 100 785 q 82 785 91 777 l 1 864 q 3 886 -9 873 l 77 961 q 99 961 88 972 l 174 888 l 246 961 q 267 961 256 971 l 349 882 z "},"ﺘ":{"ha":391,"x_min":-19,"x_max":412,"o":"m 412 1 l 359 1 q 208 91 262 1 q 47 1 155 1 l -19 1 l -19 309 l 24 309 q 125 352 96 309 q 152 431 132 362 q 199 475 165 475 q 241 431 231 475 q 263 352 256 365 q 359 309 289 309 l 412 309 l 412 1 m 370 745 q 369 728 378 737 l 289 648 q 271 648 280 640 l 195 722 l 120 648 q 102 648 111 640 l 22 727 q 24 748 12 736 l 98 823 q 119 823 109 833 l 195 751 l 267 823 q 287 823 277 833 l 370 745 z "},"ث":{"ha":1029,"x_min":83,"x_max":1027,"o":"m 1027 382 q 876 52 1027 145 q 512 -19 759 -19 q 213 35 310 -19 q 83 290 83 106 q 108 445 83 368 q 174 530 136 530 q 213 461 214 530 q 252 345 212 380 q 522 285 319 285 q 751 288 702 285 q 862 314 829 294 q 878 332 878 324 q 865 357 878 339 q 771 437 840 391 q 765 458 758 446 l 880 666 q 901 668 888 680 q 1027 382 1027 555 m 351 643 q 352 659 344 650 l 432 739 q 448 739 440 747 l 528 661 l 606 739 q 614 742 610 742 q 622 739 617 742 l 703 659 q 701 640 711 650 l 626 564 q 606 564 616 555 l 528 640 l 527 640 l 454 564 q 433 564 444 554 l 351 643 m 437 798 q 438 813 431 806 l 519 893 q 534 893 526 901 l 616 814 q 613 795 624 806 l 540 720 q 520 720 530 710 l 437 798 z "},"ﺚ":{"ha":1124,"x_min":83,"x_max":1144,"o":"m 1144 1 l 1099 1 q 931 118 988 1 q 444 -39 768 -39 q 178 32 265 -39 q 83 285 83 111 q 103 427 83 354 q 165 515 127 515 q 212 448 208 515 q 252 324 216 361 q 507 258 316 258 q 838 311 709 258 q 982 412 920 346 q 1045 465 1032 465 q 1081 420 1081 465 q 1070 373 1081 406 q 1050 326 1059 340 q 1101 309 1064 309 l 1144 309 l 1144 1 m 385 643 q 382 650 382 647 q 386 659 382 654 l 466 739 q 475 742 470 742 q 483 739 479 742 l 561 661 l 640 739 q 656 739 646 745 l 736 659 q 739 656 738 658 q 735 640 744 649 l 661 564 q 651 557 654 558 q 641 564 648 558 l 561 640 l 560 640 l 487 564 q 467 564 477 555 l 385 643 m 472 798 q 473 813 465 805 l 552 893 q 561 897 557 897 q 569 893 565 897 l 650 814 q 647 795 658 806 l 574 720 q 553 720 564 709 l 472 798 z "},"ﺛ":{"ha":319,"x_min":-20,"x_max":370,"o":"m 317 357 q 264 91 317 168 q 33 1 201 1 l -20 1 l -20 309 l 134 309 q 174 331 174 309 q 162 357 174 342 q 54 471 120 412 q 54 495 43 480 l 180 678 q 195 693 190 693 q 212 680 201 693 q 317 357 317 549 m 9 861 q 10 878 1 869 l 90 956 q 107 956 99 964 l 185 879 l 264 956 q 280 956 272 964 l 361 878 q 359 859 370 869 l 285 783 q 275 779 280 779 q 265 783 270 779 l 185 859 l 184 859 l 111 783 q 92 783 102 774 l 9 861 m 96 1017 q 97 1032 88 1023 l 176 1112 q 193 1112 184 1120 l 274 1033 q 271 1013 282 1025 l 198 937 q 178 937 189 927 l 96 1017 z "},"ﺜ":{"ha":391,"x_min":-19,"x_max":412,"o":"m 412 1 l 359 1 q 208 91 262 1 q 47 1 155 1 l -19 1 l -19 309 l 24 309 q 125 352 96 309 q 152 431 132 362 q 199 475 165 475 q 241 431 231 475 q 263 352 256 365 q 359 309 289 309 l 412 309 l 412 1 m 18 726 q 18 741 10 733 l 99 821 q 115 821 107 829 l 193 743 l 272 821 q 288 821 279 829 l 369 742 q 368 723 378 733 l 293 647 q 283 640 287 641 q 273 647 280 641 l 193 723 l 193 722 l 119 647 q 100 647 110 637 l 18 726 m 104 880 q 101 888 101 884 q 104 897 101 892 l 184 976 q 201 976 193 984 l 282 897 q 279 878 290 889 l 205 802 q 186 802 196 793 l 104 880 z "},"ج":{"ha":873,"x_min":83,"x_max":874,"o":"m 854 576 l 802 394 l 757 394 q 492 317 602 394 q 365 71 365 228 q 483 -142 365 -85 q 674 -174 550 -174 l 735 -174 l 789 -173 q 874 -211 874 -172 q 808 -279 874 -248 q 522 -321 714 -321 q 220 -245 336 -321 q 83 21 83 -155 q 466 393 83 268 q 300 412 324 412 q 210 390 245 412 q 165 351 193 380 q 127 329 145 329 q 90 373 90 329 q 130 523 90 439 q 306 650 192 650 q 478 636 363 650 q 651 623 593 623 l 833 623 q 861 608 861 623 q 854 576 861 600 m 754 89 q 753 70 764 80 l 663 -22 q 643 -22 653 -31 l 550 68 q 552 92 539 79 l 637 178 q 661 178 648 189 l 754 89 z "},"ﺞ":{"ha":918,"x_min":83,"x_max":938,"o":"m 938 1 l 878 1 q 720 85 778 1 q 669 264 669 159 q 682 372 669 317 q 467 278 538 336 q 368 57 368 198 q 522 -166 368 -111 q 775 -195 602 -195 q 865 -236 865 -195 q 800 -296 865 -273 q 584 -330 709 -330 q 248 -258 379 -330 q 83 21 83 -167 q 218 268 83 168 q 490 397 307 333 q 300 412 330 412 q 199 370 249 412 q 146 329 149 329 q 109 391 109 329 q 161 543 109 450 q 330 665 230 665 q 533 636 398 665 q 736 608 667 608 l 863 608 q 893 593 893 608 q 886 562 893 584 l 819 370 l 749 370 q 876 309 768 309 l 938 309 l 938 1 m 713 31 q 713 12 723 22 l 622 -80 q 602 -80 612 -90 l 510 10 q 512 34 499 21 l 597 120 q 620 120 608 132 l 713 31 z "},"ﺟ":{"ha":823,"x_min":-20,"x_max":821,"o":"m 814 422 l 736 240 q 562 212 627 242 q 441 128 518 191 q 318 45 363 66 q 104 1 222 1 l -20 1 l -20 309 l 135 309 q 445 347 345 309 l 310 403 q 208 432 240 432 q 136 404 179 432 q 84 375 93 375 q 45 420 45 375 q 111 559 45 469 q 290 672 192 672 q 460 608 358 672 q 647 505 592 525 q 800 465 693 489 q 821 448 821 460 q 814 422 821 440 m 541 -208 q 540 -227 550 -216 l 448 -317 q 429 -317 439 -327 l 336 -228 q 338 -203 325 -217 l 423 -117 q 447 -117 435 -106 l 541 -208 z "},"ﺠ":{"ha":844,"x_min":-20,"x_max":864,"o":"m 864 1 l 731 1 q 492 210 548 1 q 294 54 416 110 q 47 1 177 1 l -20 1 l -20 309 l 97 309 q 441 379 294 309 q 219 432 266 432 q 140 396 180 432 q 81 360 100 360 q 43 416 43 360 q 95 569 43 477 q 258 688 162 688 q 472 635 320 688 q 705 583 624 583 l 783 583 q 808 573 808 583 q 802 550 808 567 l 736 342 l 610 342 q 739 309 642 309 l 864 309 l 864 1 m 541 -208 q 540 -227 550 -216 l 448 -317 q 429 -317 439 -327 l 336 -228 q 338 -203 325 -217 l 423 -117 q 447 -117 435 -106 l 541 -208 z "},"چ":{"ha":873,"x_min":83,"x_max":874,"o":"m 854 576 l 802 394 l 757 394 q 492 317 602 394 q 365 71 365 228 q 483 -142 365 -85 q 674 -174 550 -174 l 735 -174 l 789 -173 q 874 -211 874 -172 q 808 -279 874 -248 q 522 -321 714 -321 q 220 -245 336 -321 q 83 21 83 -155 q 466 393 83 268 q 300 412 324 412 q 210 390 245 412 q 165 351 193 380 q 127 329 145 329 q 90 373 90 329 q 130 523 90 439 q 306 650 192 650 q 478 636 363 650 q 651 623 593 623 l 833 623 q 861 608 861 623 q 854 576 861 600 m 831 149 q 830 134 838 142 l 749 54 q 733 54 741 45 l 654 131 l 576 54 q 568 50 572 50 q 559 54 565 50 l 479 132 q 480 152 469 141 l 555 228 q 575 228 565 237 l 654 152 l 655 153 l 729 228 q 748 228 739 237 l 831 149 m 744 -6 q 743 -22 751 -14 l 663 -101 q 647 -101 656 -110 l 566 -22 q 569 -3 558 -14 l 642 73 q 662 73 652 82 l 744 -6 z "},"ﭻ":{"ha":918,"x_min":120,"x_max":976,"o":"m 976 1 l 916 1 q 756 84 814 1 q 706 263 706 157 q 720 372 706 316 q 504 278 576 336 q 405 57 405 198 q 559 -166 405 -111 q 812 -195 639 -195 q 903 -236 903 -195 q 838 -296 903 -273 q 621 -330 747 -330 q 286 -258 416 -330 q 120 21 120 -167 q 256 268 120 168 q 528 397 344 333 q 337 412 368 412 q 236 370 286 412 q 183 329 186 329 q 146 391 146 329 q 199 543 146 450 q 367 665 267 665 q 570 636 435 665 q 773 608 705 608 l 901 608 q 930 593 930 608 q 923 562 930 584 l 857 370 l 787 370 q 913 309 805 309 l 976 309 l 976 1 m 730 60 l 663 -6 q 656 -11 659 -11 q 650 -6 652 -10 l 584 58 l 519 -6 q 505 -6 511 -13 l 437 60 q 439 76 429 66 l 501 139 q 517 139 509 146 l 584 75 l 585 76 l 645 139 q 662 139 653 148 l 730 73 q 730 60 739 68 m 659 -56 q 658 -70 665 -62 l 591 -136 q 578 -136 585 -143 l 510 -71 q 512 -54 503 -63 l 574 9 q 589 9 581 17 l 659 -56 z "},"ﭼ":{"ha":823,"x_min":-20,"x_max":821,"o":"m 814 422 l 736 240 q 562 212 627 242 q 441 128 518 191 q 318 45 363 66 q 104 1 222 1 l -20 1 l -20 309 l 135 309 q 445 347 345 309 l 310 403 q 208 432 240 432 q 136 404 179 432 q 84 375 93 375 q 45 420 45 375 q 111 559 45 469 q 290 672 192 672 q 460 608 358 672 q 647 505 592 525 q 800 465 693 489 q 821 448 821 460 q 814 422 821 440 m 644 -154 q 643 -169 652 -162 l 562 -249 q 547 -249 555 -256 l 467 -172 l 390 -249 q 373 -249 380 -256 l 292 -170 q 294 -151 283 -161 l 368 -75 q 388 -75 378 -65 l 467 -151 l 468 -150 l 541 -75 q 561 -75 551 -65 l 644 -154 m 557 -309 q 557 -324 564 -317 l 476 -404 q 468 -408 471 -408 q 460 -404 465 -408 l 379 -324 q 382 -305 371 -316 l 456 -230 q 475 -230 465 -220 l 557 -309 z "},"ﭽ":{"ha":844,"x_min":-20,"x_max":864,"o":"m 864 1 l 731 1 q 492 210 548 1 q 294 54 416 110 q 47 1 177 1 l -20 1 l -20 309 l 97 309 q 441 379 294 309 q 219 432 266 432 q 140 396 180 432 q 81 360 100 360 q 43 416 43 360 q 95 569 43 477 q 258 688 162 688 q 472 635 320 688 q 705 583 624 583 l 783 583 q 808 573 808 583 q 802 550 808 567 l 736 342 l 610 342 q 739 309 642 309 l 864 309 l 864 1 m 596 -154 q 595 -169 604 -162 l 515 -249 q 498 -249 507 -257 l 420 -172 l 342 -249 q 326 -249 334 -257 l 245 -170 q 246 -151 235 -161 l 321 -75 q 340 -75 330 -65 l 420 -151 l 420 -150 l 494 -75 q 513 -75 503 -65 l 596 -154 m 510 -309 q 509 -324 517 -317 l 429 -404 q 420 -408 424 -408 q 412 -404 417 -408 l 332 -324 q 334 -305 323 -316 l 408 -230 q 428 -230 418 -220 l 510 -309 z "},"ح":{"ha":873,"x_min":83,"x_max":874,"o":"m 854 576 l 802 394 l 757 394 q 492 317 602 394 q 365 71 365 228 q 483 -142 365 -85 q 674 -174 550 -174 l 735 -174 l 789 -173 q 874 -211 874 -172 q 808 -279 874 -248 q 522 -321 714 -321 q 220 -245 336 -321 q 83 21 83 -155 q 466 393 83 268 q 300 412 324 412 q 210 390 245 412 q 165 351 193 380 q 127 329 145 329 q 90 373 90 329 q 130 523 90 439 q 306 650 192 650 q 478 636 363 650 q 651 623 593 623 l 833 623 q 861 608 861 623 q 854 576 861 600 z "},"ﺢ":{"ha":918,"x_min":83,"x_max":938,"o":"m 938 1 l 878 1 q 720 85 778 1 q 669 264 669 159 q 682 372 669 317 q 467 278 538 336 q 368 57 368 198 q 522 -166 368 -111 q 775 -195 602 -195 q 865 -236 865 -195 q 800 -296 865 -273 q 584 -330 709 -330 q 248 -258 379 -330 q 83 21 83 -167 q 218 268 83 168 q 490 397 307 333 q 300 412 330 412 q 199 370 249 412 q 146 329 149 329 q 109 391 109 329 q 161 543 109 450 q 330 665 230 665 q 533 636 398 665 q 736 608 667 608 l 863 608 q 893 593 893 608 q 886 562 893 584 l 819 370 l 749 370 q 876 309 768 309 l 938 309 l 938 1 z "},"ﺣ":{"ha":823,"x_min":-20,"x_max":821,"o":"m 814 422 l 736 240 q 562 212 627 242 q 441 128 518 191 q 318 45 363 66 q 104 1 222 1 l -20 1 l -20 309 l 135 309 q 445 347 345 309 l 310 403 q 208 432 240 432 q 136 404 179 432 q 84 375 93 375 q 45 420 45 375 q 111 559 45 469 q 290 672 192 672 q 460 608 358 672 q 647 505 592 525 q 800 465 693 489 q 821 448 821 460 q 814 422 821 440 z "},"ﺤ":{"ha":844,"x_min":-20,"x_max":864,"o":"m 864 1 l 731 1 q 492 210 548 1 q 294 54 416 110 q 47 1 177 1 l -20 1 l -20 309 l 97 309 q 441 379 294 309 q 219 432 266 432 q 140 396 180 432 q 81 360 100 360 q 43 416 43 360 q 95 569 43 477 q 258 688 162 688 q 472 635 320 688 q 705 583 624 583 l 783 583 q 808 573 808 583 q 802 550 808 567 l 736 342 l 610 342 q 739 309 642 309 l 864 309 l 864 1 z "},"خ":{"ha":873,"x_min":83,"x_max":874,"o":"m 854 576 l 802 394 l 757 394 q 492 317 602 394 q 365 71 365 228 q 483 -142 365 -85 q 674 -174 550 -174 l 735 -174 l 789 -173 q 874 -211 874 -172 q 808 -279 874 -248 q 522 -321 714 -321 q 220 -245 336 -321 q 83 21 83 -155 q 466 393 83 268 q 300 412 324 412 q 210 390 245 412 q 165 351 193 380 q 127 329 145 329 q 90 373 90 329 q 130 523 90 439 q 306 650 192 650 q 478 636 363 650 q 651 623 593 623 l 833 623 q 861 608 861 623 q 854 576 861 600 m 635 825 q 635 806 646 817 l 543 715 q 524 715 534 706 l 431 805 q 433 829 420 816 l 519 916 q 541 916 530 926 l 635 825 z "},"ﺦ":{"ha":918,"x_min":83,"x_max":938,"o":"m 938 1 l 878 1 q 720 85 778 1 q 669 264 669 159 q 682 372 669 317 q 467 278 538 336 q 368 57 368 198 q 522 -166 368 -111 q 775 -195 602 -195 q 865 -236 865 -195 q 800 -296 865 -273 q 584 -330 709 -330 q 248 -258 379 -330 q 83 21 83 -167 q 218 268 83 168 q 490 397 307 333 q 300 412 330 412 q 199 370 249 412 q 146 329 149 329 q 109 391 109 329 q 161 543 109 450 q 330 665 230 665 q 533 636 398 665 q 736 608 667 608 l 863 608 q 893 593 893 608 q 886 562 893 584 l 819 370 l 749 370 q 876 309 768 309 l 938 309 l 938 1 m 635 825 q 635 806 646 817 l 543 715 q 524 715 534 706 l 431 805 q 433 829 420 816 l 519 916 q 541 916 530 926 l 635 825 z "},"ﺧ":{"ha":823,"x_min":-20,"x_max":821,"o":"m 814 422 l 736 240 q 562 212 627 242 q 441 128 518 191 q 318 45 363 66 q 104 1 222 1 l -20 1 l -20 309 l 135 309 q 445 347 345 309 l 310 403 q 208 432 240 432 q 136 404 179 432 q 84 375 93 375 q 45 420 45 375 q 111 559 45 469 q 290 672 192 672 q 460 608 358 672 q 647 505 592 525 q 800 465 693 489 q 821 448 821 460 q 814 422 821 440 m 496 907 q 495 888 505 899 l 404 797 q 385 797 395 787 l 292 887 q 294 910 282 897 l 379 997 q 402 997 390 1008 l 496 907 z "},"ﺨ":{"ha":844,"x_min":-20,"x_max":864,"o":"m 864 1 l 731 1 q 492 210 548 1 q 294 54 416 110 q 47 1 177 1 l -20 1 l -20 309 l 97 309 q 441 379 294 309 q 219 432 266 432 q 140 396 180 432 q 81 360 100 360 q 43 416 43 360 q 95 569 43 477 q 258 688 162 688 q 472 635 320 688 q 705 583 624 583 l 783 583 q 808 573 808 583 q 802 550 808 567 l 736 342 l 610 342 q 739 309 642 309 l 864 309 l 864 1 m 496 907 q 495 888 505 899 l 404 797 q 385 797 395 787 l 292 887 q 294 910 282 897 l 379 997 q 402 997 390 1008 l 496 907 z "},"د":{"ha":656,"x_min":82,"x_max":655,"o":"m 655 334 q 345 2 655 2 q 82 231 82 2 q 117 399 82 321 q 155 430 132 430 q 191 391 180 430 q 239 312 208 328 q 380 294 273 294 q 514 326 514 294 q 494 361 514 340 q 239 532 420 437 l 345 759 q 363 779 355 779 q 381 772 369 779 q 530 649 455 735 q 655 334 655 507 z "},"ﺪ":{"ha":802,"x_min":83,"x_max":821,"o":"m 821 1 l 762 1 q 550 169 633 1 q 443 26 492 66 q 291 -22 383 -22 q 83 221 83 -22 q 98 332 83 273 q 155 414 119 414 q 203 377 192 414 q 228 308 223 315 q 327 271 255 271 q 422 285 375 271 q 481 327 481 302 q 479 336 481 331 l 366 605 l 517 757 q 533 768 528 768 q 544 751 538 768 l 671 401 q 770 309 705 309 l 821 309 l 821 1 z "},"ذ":{"ha":656,"x_min":82,"x_max":655,"o":"m 655 334 q 345 2 655 2 q 82 231 82 2 q 117 399 82 321 q 155 430 132 430 q 191 391 180 430 q 239 312 208 328 q 380 294 273 294 q 514 326 514 294 q 494 361 514 340 q 239 532 420 437 l 345 759 q 363 779 355 779 q 381 772 369 779 q 530 649 455 735 q 655 334 655 507 m 404 951 q 403 932 413 942 l 312 841 q 292 841 302 831 l 200 930 q 202 954 189 941 l 287 1040 q 310 1040 298 1052 l 404 951 z "},"ﺬ":{"ha":802,"x_min":83,"x_max":821,"o":"m 821 1 l 762 1 q 550 169 633 1 q 443 26 492 66 q 291 -22 383 -22 q 83 221 83 -22 q 98 332 83 273 q 155 414 119 414 q 203 377 192 414 q 228 308 223 315 q 327 271 255 271 q 422 285 375 271 q 481 327 481 302 q 479 336 481 331 l 366 605 l 517 757 q 533 768 528 768 q 544 751 538 768 l 671 401 q 770 309 705 309 l 821 309 l 821 1 m 550 935 q 550 916 559 925 l 458 824 q 439 824 449 814 l 347 914 q 349 937 336 924 l 433 1024 q 456 1024 444 1036 l 550 935 z "},"ر":{"ha":607,"x_min":58,"x_max":606,"o":"m 606 57 q 473 -337 606 -196 q 432 -353 458 -353 l 114 -353 q 58 -307 58 -353 q 81 -271 58 -282 q 302 -138 171 -228 q 473 28 473 -21 q 321 212 473 69 l 429 435 q 454 440 439 454 q 570 288 537 366 q 606 57 606 201 z "},"ﺮ":{"ha":661,"x_min":58,"x_max":681,"o":"m 681 0 l 644 0 q 593 16 616 0 l 593 -43 q 552 -210 593 -118 q 473 -337 516 -291 q 432 -353 458 -353 l 114 -353 q 58 -307 58 -353 q 81 -271 58 -282 q 302 -138 171 -228 q 473 28 473 -21 q 321 212 473 69 l 429 435 q 454 440 439 456 q 544 353 519 373 q 656 309 601 309 l 681 309 l 681 0 z "},"ز":{"ha":607,"x_min":58,"x_max":606,"o":"m 606 57 q 473 -337 606 -196 q 432 -353 458 -353 l 114 -353 q 58 -307 58 -353 q 81 -271 58 -282 q 302 -138 171 -228 q 473 28 473 -21 q 321 212 473 69 l 429 435 q 454 440 439 454 q 570 288 537 366 q 606 57 606 201 m 483 690 q 482 671 492 682 l 391 580 q 372 580 381 570 l 278 670 q 281 694 267 680 l 366 780 q 389 780 376 791 l 483 690 z "},"ﺰ":{"ha":661,"x_min":58,"x_max":681,"o":"m 681 0 l 644 0 q 593 16 616 0 l 593 -43 q 552 -210 593 -118 q 473 -337 516 -291 q 432 -353 458 -353 l 114 -353 q 58 -307 58 -353 q 81 -271 58 -282 q 302 -138 171 -228 q 473 28 473 -21 q 321 212 473 69 l 429 435 q 454 440 439 456 q 544 353 519 373 q 656 309 601 309 l 681 309 l 681 0 m 483 690 q 482 671 492 682 l 391 580 q 372 580 381 570 l 278 670 q 281 694 267 680 l 366 780 q 389 780 376 791 l 483 690 z "},"ژ":{"ha":607,"x_min":58,"x_max":606,"o":"m 606 57 q 473 -337 606 -196 q 432 -353 458 -353 l 114 -353 q 58 -307 58 -353 q 81 -271 58 -282 q 302 -138 171 -228 q 473 28 473 -21 q 321 212 473 69 l 429 435 q 454 440 439 454 q 570 288 537 366 q 606 57 606 201 m 221 667 q 222 683 214 675 l 302 762 q 319 762 311 770 l 397 685 l 475 762 q 484 766 481 766 q 492 762 488 766 l 573 684 q 571 665 581 675 l 496 588 q 477 588 487 578 l 397 665 l 397 663 l 323 588 q 304 588 314 578 l 221 667 m 308 823 q 309 838 300 830 l 389 917 q 405 917 397 926 l 486 839 q 484 819 495 830 l 410 743 q 391 743 400 734 l 308 823 z "},"ﮋ":{"ha":661,"x_min":58,"x_max":681,"o":"m 681 0 l 644 0 q 593 16 616 0 l 593 -43 q 552 -210 593 -118 q 473 -337 516 -291 q 432 -353 458 -353 l 114 -353 q 58 -307 58 -353 q 81 -271 58 -282 q 302 -138 171 -228 q 473 28 473 -21 q 321 212 473 69 l 429 435 q 454 440 439 456 q 544 353 519 373 q 656 309 601 309 l 681 309 l 681 0 m 221 667 q 222 683 214 675 l 302 762 q 319 762 311 770 l 397 685 l 475 762 q 484 766 481 766 q 492 762 488 766 l 573 684 q 571 665 581 675 l 496 588 q 477 588 487 578 l 397 665 l 397 663 l 323 588 q 304 588 314 578 l 221 667 m 308 823 q 309 838 300 830 l 389 917 q 405 917 397 926 l 486 839 q 484 819 495 830 l 410 743 q 391 743 400 734 l 308 823 z "},"س":{"ha":1357,"x_min":83,"x_max":1355,"o":"m 1355 359 q 1322 141 1355 243 q 1191 4 1277 4 q 1059 81 1106 4 q 965 4 1025 4 q 876 31 923 4 q 465 -342 876 -342 q 199 -278 296 -342 q 83 -41 83 -201 q 115 143 83 38 q 200 268 153 268 q 237 243 229 268 q 241 194 241 230 q 233 140 241 177 q 224 85 224 104 q 494 -49 224 -49 q 645 -31 574 -49 q 751 55 751 -3 q 615 214 751 104 l 721 420 q 732 431 727 431 q 747 420 736 431 q 835 334 814 351 q 933 294 885 294 q 991 333 977 294 l 1006 404 q 1053 446 1021 446 q 1095 403 1080 446 l 1109 336 q 1180 297 1128 297 q 1243 342 1243 297 q 1210 447 1243 367 l 1298 543 q 1319 541 1312 559 q 1355 359 1355 453 z "},"ﺲ":{"ha":1422,"x_min":83,"x_max":1442,"o":"m 1442 1 l 1390 1 q 1262 76 1320 1 q 1223 31 1230 36 q 1161 7 1196 7 q 1046 72 1084 7 q 963 8 1010 8 q 876 31 910 8 q 465 -342 876 -342 q 199 -278 296 -342 q 83 -41 83 -201 q 117 143 83 34 q 200 268 155 268 q 237 243 229 268 q 241 194 241 231 q 233 139 241 176 q 224 85 224 103 q 494 -49 224 -49 q 645 -31 574 -49 q 751 55 751 -3 q 615 214 751 104 l 721 420 q 732 431 727 431 q 747 420 736 431 q 844 332 814 353 q 936 302 889 302 q 996 339 980 302 q 1014 409 1001 359 q 1059 446 1024 446 q 1097 408 1090 446 l 1109 338 q 1166 300 1122 300 q 1221 338 1206 300 l 1236 405 q 1278 447 1251 447 q 1318 407 1305 447 l 1331 343 q 1390 307 1346 307 l 1442 307 l 1442 1 z "},"ﺳ":{"ha":713,"x_min":-20,"x_max":713,"o":"m 713 359 q 677 139 713 239 q 530 0 627 0 q 395 90 449 0 q 286 1 356 1 q 153 92 187 1 q 33 -1 112 -1 l -20 -1 l -20 305 l 31 305 q 98 343 78 305 q 117 410 108 376 q 161 452 135 452 q 203 414 193 452 l 223 343 q 295 305 242 305 q 348 344 334 305 q 363 415 352 363 q 408 454 373 454 q 449 413 439 454 l 467 338 q 538 297 486 297 q 601 342 601 297 q 589 398 601 370 q 568 447 583 414 l 656 543 q 677 541 670 559 q 713 359 713 451 z "},"ﺴ":{"ha":792,"x_min":-20,"x_max":815,"o":"m 815 1 l 763 1 q 635 90 696 1 q 516 1 570 1 q 446 31 481 1 q 399 92 415 56 q 286 1 337 1 q 165 92 208 1 q 33 -1 104 -1 l -20 -1 l -20 305 l 31 305 q 102 347 82 305 q 122 418 113 382 q 169 465 140 465 q 214 423 203 465 q 233 347 218 408 q 295 305 249 305 q 349 346 334 305 q 368 421 354 367 q 413 462 379 462 q 456 422 446 462 q 472 347 460 401 q 526 307 486 307 q 580 347 566 307 q 596 421 587 382 q 642 460 606 460 q 684 420 673 460 q 703 347 688 406 q 764 307 720 307 l 815 307 l 815 1 z "},"ش":{"ha":1357,"x_min":83,"x_max":1355,"o":"m 1355 359 q 1322 141 1355 243 q 1191 4 1277 4 q 1059 81 1106 4 q 965 4 1025 4 q 876 31 923 4 q 465 -342 876 -342 q 199 -278 296 -342 q 83 -41 83 -201 q 115 143 83 38 q 200 268 153 268 q 237 243 229 268 q 241 194 241 230 q 233 140 241 177 q 224 85 224 104 q 494 -49 224 -49 q 645 -31 574 -49 q 751 55 751 -3 q 615 214 751 104 l 721 420 q 732 431 727 431 q 747 420 736 431 q 835 334 814 351 q 933 294 885 294 q 991 333 977 294 l 1006 404 q 1053 446 1021 446 q 1095 403 1080 446 l 1109 336 q 1180 297 1128 297 q 1243 342 1243 297 q 1210 447 1243 367 l 1298 543 q 1319 541 1312 559 q 1355 359 1355 453 m 907 729 q 908 744 900 736 l 989 823 q 1005 823 997 831 l 1084 747 l 1162 823 q 1179 823 1170 831 l 1259 745 q 1257 726 1268 736 l 1183 650 q 1163 650 1173 640 l 1084 726 l 1083 725 l 1010 650 q 990 650 1000 640 l 907 729 m 994 883 q 995 899 987 890 l 1075 979 q 1091 979 1083 987 l 1172 899 q 1170 880 1181 890 l 1096 804 q 1077 804 1086 795 l 994 883 z "},"ﺶ":{"ha":1422,"x_min":83,"x_max":1442,"o":"m 1442 1 l 1390 1 q 1262 76 1320 1 q 1223 31 1230 36 q 1161 7 1196 7 q 1046 72 1084 7 q 963 8 1010 8 q 876 31 910 8 q 465 -342 876 -342 q 199 -278 296 -342 q 83 -41 83 -201 q 117 143 83 34 q 200 268 155 268 q 237 243 229 268 q 241 194 241 231 q 233 139 241 176 q 224 85 224 103 q 494 -49 224 -49 q 645 -31 574 -49 q 751 55 751 -3 q 615 214 751 104 l 721 420 q 732 431 727 431 q 747 420 736 431 q 844 332 814 353 q 936 302 889 302 q 996 339 980 302 q 1014 409 1001 359 q 1059 446 1024 446 q 1097 408 1090 446 l 1109 338 q 1166 300 1122 300 q 1221 338 1206 300 l 1236 405 q 1278 447 1251 447 q 1318 407 1305 447 l 1331 343 q 1390 307 1346 307 l 1442 307 l 1442 1 m 907 729 q 908 744 900 736 l 989 823 q 1005 823 997 831 l 1084 747 l 1162 823 q 1179 823 1170 831 l 1259 745 q 1257 726 1268 736 l 1183 650 q 1163 650 1173 640 l 1084 726 l 1083 725 l 1010 650 q 990 650 1000 640 l 907 729 m 994 883 q 995 899 987 890 l 1075 979 q 1091 979 1083 987 l 1172 899 q 1170 880 1181 890 l 1096 804 q 1077 804 1086 795 l 994 883 z "},"ﺷ":{"ha":713,"x_min":-20,"x_max":713,"o":"m 713 359 q 677 139 713 239 q 530 0 627 0 q 395 90 449 0 q 286 1 356 1 q 153 92 187 1 q 33 -1 112 -1 l -20 -1 l -20 305 l 31 305 q 98 343 78 305 q 117 410 108 376 q 161 452 135 452 q 203 414 193 452 l 223 343 q 295 305 242 305 q 348 344 334 305 q 363 415 352 363 q 408 454 373 454 q 449 413 439 454 l 467 338 q 538 297 486 297 q 601 342 601 297 q 589 398 601 370 q 568 447 583 414 l 656 543 q 677 541 670 559 q 713 359 713 451 m 229 729 q 229 744 220 735 l 309 823 q 326 823 317 831 l 404 747 l 483 823 q 498 823 491 831 l 579 745 q 578 726 589 736 l 503 650 q 484 650 494 640 l 404 726 l 404 725 l 330 650 q 311 650 321 640 l 229 729 m 315 883 q 315 899 307 890 l 395 979 q 412 979 404 987 l 493 899 q 490 880 501 891 l 417 804 q 397 804 408 794 l 315 883 z "},"ﺸ":{"ha":795,"x_min":-20,"x_max":815,"o":"m 815 1 l 763 1 q 635 90 696 1 q 516 1 570 1 q 446 31 481 1 q 399 92 415 56 q 286 1 337 1 q 165 92 208 1 q 33 -1 104 -1 l -20 -1 l -20 305 l 31 305 q 102 347 82 305 q 122 418 113 382 q 169 465 140 465 q 214 423 203 465 q 233 347 218 408 q 295 305 249 305 q 349 346 334 305 q 368 421 354 367 q 413 462 379 462 q 456 422 446 462 q 472 347 460 401 q 526 307 486 307 q 580 347 566 307 q 596 421 587 382 q 642 460 606 460 q 684 420 673 460 q 703 347 688 406 q 764 307 720 307 l 815 307 l 815 1 m 229 729 q 229 744 220 735 l 309 823 q 326 823 317 831 l 404 747 l 483 823 q 498 823 491 831 l 579 745 q 578 726 589 736 l 503 650 q 484 650 494 640 l 404 726 l 404 725 l 330 650 q 311 650 321 640 l 229 729 m 315 883 q 315 899 307 890 l 395 979 q 412 979 404 987 l 493 899 q 490 880 501 891 l 417 804 q 397 804 408 794 l 315 883 z "},"ص":{"ha":1456,"x_min":83,"x_max":1453,"o":"m 1453 449 q 1332 136 1453 268 q 1028 1 1207 1 q 876 31 945 1 q 465 -342 876 -342 q 199 -278 296 -342 q 83 -41 83 -201 q 115 143 83 38 q 200 268 153 268 q 237 243 229 268 q 241 194 241 230 q 233 140 241 177 q 224 85 224 104 q 494 -49 224 -49 q 645 -31 574 -49 q 751 55 751 -3 q 615 214 751 104 l 721 420 q 732 431 727 431 q 747 420 738 431 q 860 310 841 310 q 932 392 865 310 q 1274 625 1126 625 q 1401 575 1350 625 q 1453 449 1453 524 m 1279 341 q 1186 419 1279 419 q 952 277 1096 419 q 1010 276 981 276 q 1213 299 1135 276 q 1279 341 1279 319 z "},"ﺺ":{"ha":1505,"x_min":83,"x_max":1525,"o":"m 1525 1 l 1472 1 q 1310 118 1369 1 q 1021 1 1214 1 q 876 31 945 1 q 465 -342 876 -342 q 199 -278 296 -342 q 83 -41 83 -201 q 115 143 83 38 q 200 268 153 268 q 237 243 229 268 q 241 194 241 230 q 233 140 241 177 q 224 85 224 104 q 494 -49 224 -49 q 645 -31 574 -49 q 751 55 751 -3 q 615 214 751 104 l 721 420 q 732 431 727 431 q 747 420 738 431 q 860 310 841 310 q 932 392 865 310 q 1280 625 1126 625 q 1404 573 1355 625 q 1453 446 1453 522 q 1434 324 1453 367 q 1469 309 1439 309 l 1525 309 l 1525 1 m 1279 341 q 1186 419 1279 419 q 952 277 1096 419 q 1010 276 981 276 q 1213 299 1135 276 q 1279 341 1279 319 z "},"ﺻ":{"ha":846,"x_min":-20,"x_max":851,"o":"m 851 445 q 749 167 851 298 q 410 4 622 4 q 277 25 346 4 q 165 87 199 49 q 38 1 111 1 l -20 1 l -20 309 l 30 309 q 95 349 73 309 q 121 426 100 358 q 157 467 134 467 q 205 391 183 467 q 259 315 227 315 q 332 396 264 315 q 479 547 412 493 q 672 628 583 628 q 808 566 758 628 q 851 445 851 513 m 675 345 q 583 422 675 422 q 349 281 492 422 q 410 280 380 280 q 610 303 532 280 q 675 345 675 323 z "},"ﺼ":{"ha":897,"x_min":-20,"x_max":917,"o":"m 917 1 l 857 1 q 701 119 758 1 q 410 4 615 4 q 277 25 346 4 q 165 87 199 49 q 38 1 111 1 l -20 1 l -20 309 l 30 309 q 95 349 73 309 q 121 426 100 358 q 157 467 134 467 q 205 392 183 467 q 259 317 227 317 q 332 397 264 317 q 479 547 413 495 q 674 628 583 628 q 802 574 752 628 q 851 441 851 520 q 825 324 851 376 q 861 309 833 309 l 917 309 l 917 1 m 675 345 q 583 422 675 422 q 349 281 492 422 q 410 280 380 280 q 610 303 532 280 q 675 345 675 323 z "},"ض":{"ha":1456,"x_min":83,"x_max":1453,"o":"m 1453 449 q 1332 136 1453 268 q 1028 1 1207 1 q 876 31 945 1 q 465 -342 876 -342 q 199 -278 296 -342 q 83 -41 83 -201 q 115 143 83 38 q 200 268 153 268 q 237 243 229 268 q 241 194 241 230 q 233 140 241 177 q 224 85 224 104 q 494 -49 224 -49 q 645 -31 574 -49 q 751 55 751 -3 q 615 214 751 104 l 721 420 q 732 431 727 431 q 747 420 738 431 q 860 310 841 310 q 932 392 865 310 q 1274 625 1126 625 q 1401 575 1350 625 q 1453 449 1453 524 m 1279 341 q 1186 419 1279 419 q 952 277 1096 419 q 1010 276 981 276 q 1213 299 1135 276 q 1279 341 1279 319 m 1255 869 q 1254 850 1264 860 l 1162 758 q 1143 758 1153 749 l 1050 848 q 1053 871 1040 859 l 1137 958 q 1161 958 1149 970 l 1255 869 z "},"ﺾ":{"ha":1505,"x_min":83,"x_max":1525,"o":"m 1525 1 l 1472 1 q 1310 118 1369 1 q 1021 1 1214 1 q 876 31 945 1 q 465 -342 876 -342 q 199 -278 296 -342 q 83 -41 83 -201 q 115 143 83 38 q 200 268 153 268 q 237 243 229 268 q 241 194 241 230 q 233 140 241 177 q 224 85 224 104 q 494 -49 224 -49 q 645 -31 574 -49 q 751 55 751 -3 q 615 214 751 104 l 721 420 q 732 431 727 431 q 747 420 738 431 q 860 310 841 310 q 932 392 865 310 q 1280 625 1126 625 q 1404 573 1355 625 q 1453 446 1453 522 q 1434 324 1453 367 q 1469 309 1439 309 l 1525 309 l 1525 1 m 1279 341 q 1186 419 1279 419 q 952 277 1096 419 q 1010 276 981 276 q 1213 299 1135 276 q 1279 341 1279 319 m 1255 869 q 1254 850 1264 860 l 1162 758 q 1143 758 1153 749 l 1050 848 q 1053 871 1040 859 l 1137 958 q 1161 958 1149 970 l 1255 869 z "},"ﺿ":{"ha":846,"x_min":-20,"x_max":851,"o":"m 851 445 q 749 167 851 298 q 410 4 622 4 q 277 25 346 4 q 165 87 199 49 q 38 1 111 1 l -20 1 l -20 309 l 30 309 q 95 349 73 309 q 121 426 100 358 q 157 467 134 467 q 205 391 183 467 q 259 315 227 315 q 332 396 264 315 q 479 547 412 493 q 672 628 583 628 q 808 566 758 628 q 851 445 851 513 m 675 345 q 583 422 675 422 q 349 281 492 422 q 410 280 380 280 q 610 303 532 280 q 675 345 675 323 m 608 869 q 608 850 618 860 l 517 758 q 497 758 507 749 l 405 848 q 407 871 394 859 l 492 958 q 515 958 503 969 l 608 869 z "},"ﻀ":{"ha":897,"x_min":-20,"x_max":917,"o":"m 917 1 l 857 1 q 701 119 758 1 q 410 4 615 4 q 277 25 346 4 q 165 87 199 49 q 38 1 111 1 l -20 1 l -20 309 l 30 309 q 95 349 73 309 q 121 426 100 358 q 157 467 134 467 q 205 392 183 467 q 259 317 227 317 q 332 397 264 317 q 479 547 413 495 q 674 628 583 628 q 802 574 752 628 q 851 441 851 520 q 825 324 851 376 q 861 309 833 309 l 917 309 l 917 1 m 675 345 q 583 422 675 422 q 349 281 492 422 q 410 280 380 280 q 610 303 532 280 q 675 345 675 323 m 608 869 q 608 850 618 860 l 517 758 q 497 758 507 749 l 405 848 q 407 871 394 859 l 492 958 q 515 958 503 969 l 608 869 z "},"ط":{"ha":1053,"x_min":83,"x_max":1052,"o":"m 1052 470 q 997 288 1052 389 q 786 75 920 149 q 494 3 657 3 q 289 63 393 3 q 140 182 209 109 q 83 264 83 244 q 112 298 83 292 q 163 301 123 301 q 239 299 165 301 q 350 297 262 298 q 311 652 350 479 q 244 860 281 779 l 419 1013 q 450 1033 442 1033 q 473 1002 458 1033 l 576 772 q 587 738 587 747 q 573 730 587 730 q 524 740 557 730 q 528 667 528 704 q 470 374 528 517 q 888 647 715 647 q 1008 595 963 647 q 1052 470 1052 547 m 849 365 q 756 443 849 443 q 522 302 663 443 q 583 300 553 300 q 783 323 706 300 q 849 365 849 343 z "},"ﻂ":{"ha":1107,"x_min":83,"x_max":1128,"o":"m 1128 1 l 1086 1 q 886 146 951 1 q 494 3 728 3 q 289 63 393 3 q 140 182 209 109 q 83 264 83 244 q 112 298 83 292 q 163 301 123 301 q 239 299 165 301 q 350 297 262 298 q 311 652 350 479 q 244 860 281 779 l 419 1013 q 450 1033 442 1033 q 473 1002 458 1033 l 576 772 q 587 738 587 747 q 573 730 587 730 q 524 740 557 730 q 528 667 528 704 q 470 374 528 517 q 888 647 715 647 q 1008 595 963 647 q 1052 470 1052 547 q 1020 326 1052 378 q 1078 309 1030 309 l 1128 309 l 1128 1 m 849 365 q 756 443 849 443 q 522 302 663 443 q 583 300 553 300 q 783 323 706 300 q 849 365 849 343 z "},"ﻃ":{"ha":825,"x_min":-20,"x_max":824,"o":"m 824 470 q 705 184 824 316 q 212 1 538 1 l -20 1 l -20 309 l 122 309 q 16 860 122 635 l 192 1013 q 222 1033 216 1033 q 245 1002 231 1033 l 348 772 q 359 738 359 747 q 345 730 359 730 q 296 740 330 730 q 300 667 300 704 q 242 374 300 517 q 660 647 488 647 q 781 595 735 647 q 824 470 824 547 m 621 365 q 528 443 621 443 q 294 302 437 443 q 355 300 326 300 q 555 323 478 300 q 621 365 621 343 z "},"ﻄ":{"ha":880,"x_min":-20,"x_max":901,"o":"m 901 1 l 859 1 q 658 146 726 1 q 191 1 497 1 l -20 1 l -20 309 l 122 309 q 16 860 122 635 l 192 1013 q 222 1033 216 1033 q 245 1002 231 1033 l 348 772 q 359 738 359 747 q 345 730 359 730 q 296 740 330 730 q 300 667 300 704 q 242 374 300 517 q 660 647 488 647 q 781 595 735 647 q 824 470 824 547 q 793 326 824 378 q 850 309 802 309 l 901 309 l 901 1 m 621 365 q 528 443 621 443 q 294 302 437 443 q 355 300 326 300 q 555 323 478 300 q 621 365 621 343 z "},"ظ":{"ha":1053,"x_min":83,"x_max":1052,"o":"m 1052 470 q 997 288 1052 389 q 786 75 920 149 q 494 3 657 3 q 289 63 393 3 q 140 182 209 109 q 83 264 83 244 q 112 298 83 292 q 163 301 123 301 q 239 299 165 301 q 350 297 262 298 q 311 652 350 479 q 244 860 281 779 l 419 1013 q 450 1033 442 1033 q 473 1002 458 1033 l 576 772 q 587 738 587 747 q 573 730 587 730 q 524 740 557 730 q 528 667 528 704 q 470 374 528 517 q 888 647 715 647 q 1008 595 963 647 q 1052 470 1052 547 m 849 365 q 756 443 849 443 q 522 302 663 443 q 583 300 553 300 q 783 323 706 300 q 849 365 849 343 m 922 869 q 921 850 930 859 l 830 758 q 810 758 820 748 l 718 848 q 720 871 707 859 l 804 958 q 827 958 815 970 l 922 869 z "},"ﻆ":{"ha":1107,"x_min":83,"x_max":1128,"o":"m 1128 1 l 1086 1 q 886 146 951 1 q 494 3 728 3 q 289 63 393 3 q 140 182 209 109 q 83 264 83 244 q 112 298 83 292 q 163 301 123 301 q 239 299 165 301 q 350 297 262 298 q 311 652 350 479 q 244 860 281 779 l 419 1013 q 450 1033 442 1033 q 473 1002 458 1033 l 576 772 q 587 738 587 747 q 573 730 587 730 q 524 740 557 730 q 528 667 528 704 q 470 374 528 517 q 888 647 715 647 q 1008 595 963 647 q 1052 470 1052 547 q 1020 326 1052 378 q 1078 309 1030 309 l 1128 309 l 1128 1 m 849 365 q 756 443 849 443 q 522 302 663 443 q 583 300 553 300 q 783 323 706 300 q 849 365 849 343 m 922 869 q 921 850 930 859 l 830 758 q 810 758 820 748 l 718 848 q 720 871 707 859 l 804 958 q 827 958 815 970 l 922 869 z "},"ﻇ":{"ha":825,"x_min":-20,"x_max":824,"o":"m 824 470 q 705 184 824 316 q 212 1 538 1 l -20 1 l -20 309 l 122 309 q 16 860 122 635 l 192 1013 q 222 1033 216 1033 q 245 1002 231 1033 l 348 772 q 359 738 359 747 q 345 730 359 730 q 296 740 330 730 q 300 667 300 704 q 242 374 300 517 q 660 647 488 647 q 781 595 735 647 q 824 470 824 547 m 621 365 q 528 443 621 443 q 294 302 437 443 q 355 300 326 300 q 555 323 478 300 q 621 365 621 343 m 663 869 q 663 850 672 859 l 571 758 q 551 758 562 749 l 459 848 q 461 871 448 859 l 547 958 q 569 958 557 969 l 663 869 z "},"ﻈ":{"ha":880,"x_min":-20,"x_max":901,"o":"m 901 1 l 859 1 q 658 146 726 1 q 191 1 497 1 l -20 1 l -20 309 l 122 309 q 16 860 122 635 l 192 1013 q 222 1033 216 1033 q 245 1002 231 1033 l 348 772 q 359 738 359 747 q 345 730 359 730 q 296 740 330 730 q 300 667 300 704 q 242 374 300 517 q 660 647 488 647 q 781 595 735 647 q 824 470 824 547 q 793 326 824 378 q 850 309 802 309 l 901 309 l 901 1 m 621 365 q 528 443 621 443 q 294 302 437 443 q 355 300 326 300 q 555 323 478 300 q 621 365 621 343 m 663 869 q 663 850 672 859 l 571 758 q 551 758 562 749 l 459 848 q 461 871 448 859 l 547 958 q 569 958 557 969 l 663 869 z "},"ع":{"ha":892,"x_min":82,"x_max":889,"o":"m 889 -255 q 730 -340 889 -314 q 530 -355 634 -355 q 82 -46 82 -355 q 203 190 82 94 q 400 296 262 237 q 310 345 334 326 q 266 434 266 381 q 364 686 266 557 q 597 824 471 824 q 824 625 760 824 q 829 595 829 610 q 806 555 829 555 q 708 577 781 555 q 592 599 634 599 q 485 582 532 599 q 429 528 429 562 q 499 485 429 507 q 699 459 583 459 q 857 471 772 459 q 884 461 884 474 q 879 440 884 454 l 802 212 q 677 224 742 224 q 471 178 551 224 q 370 4 370 121 q 463 -174 370 -123 q 661 -210 531 -210 q 820 -212 776 -210 q 889 -255 889 -214 z "},"ﻊ":{"ha":855,"x_min":83,"x_max":876,"o":"m 876 1 l 795 1 q 619 83 689 1 q 547 249 562 151 q 427 146 474 215 q 378 -2 378 76 q 478 -179 378 -120 q 686 -227 559 -227 q 720 -225 697 -227 q 753 -224 742 -224 q 848 -269 848 -224 q 530 -355 848 -355 q 83 -35 83 -355 q 160 178 83 92 q 325 286 225 250 q 478 338 368 300 q 389 425 429 403 q 341 439 383 428 q 328 469 328 444 q 391 587 328 532 q 574 650 465 650 q 715 612 653 650 q 785 492 785 568 q 740 397 785 446 q 668 326 739 396 q 763 309 702 309 l 876 309 l 876 1 z "},"ﻋ":{"ha":597,"x_min":-20,"x_max":597,"o":"m 591 337 l 559 209 q 515 79 526 80 q 405 73 481 74 q 293 79 327 73 q 164 22 256 47 q 28 1 82 1 l -20 1 l -20 309 l 28 309 q 81 323 66 309 q 34 402 34 369 q 123 620 34 521 q 333 722 216 722 q 484 660 416 722 q 564 534 541 607 q 569 505 569 519 q 546 464 569 464 q 459 478 519 464 q 368 492 399 492 q 247 474 307 492 q 175 416 175 452 q 253 361 175 378 q 357 351 300 351 q 569 372 447 351 q 597 364 597 376 q 591 337 597 359 z "},"ﻌ":{"ha":557,"x_min":-20,"x_max":576,"o":"m 576 1 l 513 1 q 283 109 327 1 q 199 23 248 47 q 79 1 153 1 l -20 1 l -20 309 l 70 309 q 184 324 168 309 q 98 414 137 387 q 85 421 93 417 l 56 436 q 45 469 45 441 q 110 587 45 532 q 292 650 183 650 q 433 612 371 650 q 503 492 503 568 q 460 394 503 448 q 391 321 449 380 q 494 309 413 309 l 576 309 l 576 1 z "},"غ":{"ha":885,"x_min":82,"x_max":889,"o":"m 889 -255 q 730 -340 889 -314 q 530 -355 634 -355 q 82 -46 82 -355 q 203 190 82 94 q 400 296 262 237 q 310 345 334 326 q 266 434 266 381 q 364 686 266 557 q 597 824 471 824 q 824 625 760 824 q 829 595 829 610 q 806 555 829 555 q 708 577 781 555 q 592 599 634 599 q 485 582 532 599 q 429 528 429 562 q 499 485 429 507 q 699 459 583 459 q 857 471 772 459 q 884 461 884 474 q 879 440 884 454 l 802 212 q 677 224 742 224 q 471 178 551 224 q 370 4 370 121 q 463 -174 370 -123 q 661 -210 531 -210 q 820 -212 776 -210 q 889 -255 889 -214 m 733 1000 q 732 981 743 991 l 642 889 q 622 889 632 880 l 530 979 q 531 1003 518 990 l 616 1089 q 640 1089 627 1101 l 733 1000 z "},"ﻎ":{"ha":855,"x_min":83,"x_max":876,"o":"m 876 1 l 795 1 q 619 83 689 1 q 547 249 562 151 q 427 146 474 215 q 378 -2 378 76 q 478 -179 378 -120 q 686 -227 559 -227 q 720 -225 697 -227 q 753 -224 742 -224 q 848 -269 848 -224 q 530 -355 848 -355 q 83 -35 83 -355 q 160 178 83 92 q 325 286 225 250 q 478 338 368 300 q 389 425 429 403 q 341 439 383 428 q 328 469 328 444 q 391 587 328 532 q 574 650 465 650 q 715 612 653 650 q 785 492 785 568 q 740 397 785 446 q 668 326 739 396 q 763 309 702 309 l 876 309 l 876 1 m 704 869 q 703 850 713 860 l 612 758 q 593 758 603 749 l 500 848 q 503 871 490 859 l 587 958 q 610 958 598 970 l 704 869 z "},"ﻏ":{"ha":597,"x_min":-20,"x_max":597,"o":"m 591 337 l 559 209 q 515 79 526 80 q 405 73 481 74 q 293 79 327 73 q 164 22 256 47 q 28 1 82 1 l -20 1 l -20 309 l 28 309 q 81 323 66 309 q 34 402 34 369 q 123 620 34 521 q 333 722 216 722 q 484 660 416 722 q 564 534 541 607 q 569 505 569 519 q 546 464 569 464 q 459 478 519 464 q 368 492 399 492 q 247 474 307 492 q 175 416 175 452 q 253 361 175 378 q 357 351 300 351 q 569 372 447 351 q 597 364 597 376 q 591 337 597 359 m 414 882 q 414 863 424 873 l 323 772 q 303 772 312 763 l 211 861 q 212 886 199 873 l 297 972 q 321 972 309 983 l 414 882 z "},"ﻐ":{"ha":555,"x_min":-20,"x_max":576,"o":"m 576 1 l 513 1 q 283 109 327 1 q 199 23 248 47 q 79 1 153 1 l -20 1 l -20 309 l 70 309 q 184 324 168 309 q 98 414 137 387 q 85 421 93 417 l 56 436 q 45 469 45 441 q 110 587 45 532 q 292 650 183 650 q 433 612 371 650 q 503 492 503 568 q 460 394 503 448 q 391 321 449 380 q 494 309 413 309 l 576 309 l 576 1 m 385 869 q 384 850 394 860 l 293 758 q 273 758 283 749 l 181 848 q 183 871 171 859 l 268 958 q 291 958 279 970 l 385 869 z "},"ف":{"ha":1051,"x_min":83,"x_max":1048,"o":"m 1048 372 q 886 44 1048 137 q 512 -26 764 -26 q 214 28 312 -26 q 83 283 83 101 q 108 437 83 361 q 174 523 136 523 q 213 455 214 523 q 252 334 212 372 q 522 271 319 271 q 781 274 736 271 q 938 314 903 281 q 947 332 947 323 q 940 339 947 339 q 930 337 935 339 q 803 324 899 324 q 619 477 619 324 q 666 663 619 571 q 806 773 722 773 q 998 621 931 773 q 1048 372 1048 507 m 888 518 q 857 559 888 539 q 804 577 827 577 q 741 530 741 577 q 818 505 741 505 q 888 518 888 505 m 903 966 q 903 947 913 957 l 812 857 q 791 857 802 846 l 699 945 q 701 970 689 958 l 786 1056 q 809 1056 797 1067 l 903 966 z "},"ﻒ":{"ha":1133,"x_min":83,"x_max":1154,"o":"m 1154 1 l 1099 1 q 989 37 1046 1 q 920 97 946 64 q 512 -26 780 -26 q 214 28 312 -26 q 83 283 83 101 q 108 437 83 361 q 174 523 136 523 q 213 455 214 523 q 252 334 212 372 q 522 271 320 271 q 758 290 677 271 q 724 400 724 323 q 786 576 724 486 q 955 681 858 681 q 1076 606 1034 681 q 1110 477 1110 547 q 1065 309 1110 372 l 1154 309 l 1154 1 m 1001 410 q 970 450 1001 432 q 918 465 943 465 q 863 451 891 465 q 830 410 830 435 q 862 369 830 391 q 914 347 894 347 q 969 365 941 347 q 1001 410 1001 385 m 1038 883 q 1037 864 1047 874 l 945 773 q 926 773 936 764 l 833 863 q 836 887 822 873 l 921 973 q 944 973 932 985 l 1038 883 z "},"ﻓ":{"ha":456,"x_min":-21,"x_max":454,"o":"m 454 399 q 66 1 454 1 l -21 1 l -21 309 l 64 309 q 322 334 289 309 q 336 358 336 345 q 317 376 336 376 q 305 374 311 376 q 199 363 282 363 q 24 504 24 363 q 71 690 24 598 q 212 800 127 800 q 404 648 336 800 q 454 399 454 533 m 296 550 q 264 591 296 572 q 212 608 236 608 q 171 597 189 608 q 150 562 150 584 q 225 536 150 536 q 296 550 296 536 m 313 991 q 312 972 322 982 l 221 880 q 201 880 212 871 l 109 970 q 111 994 98 981 l 195 1080 q 219 1080 207 1092 l 313 991 z "},"ﻔ":{"ha":465,"x_min":-20,"x_max":484,"o":"m 484 1 l 430 1 q 317 37 377 1 q 245 95 270 64 q 26 1 133 1 l -20 1 l -20 309 l 76 309 q 54 400 54 332 q 117 576 54 486 q 286 681 190 681 q 408 606 365 681 q 441 477 441 549 q 396 309 441 366 l 484 309 l 484 1 m 332 410 q 300 450 332 432 q 249 465 273 465 q 194 452 221 465 q 161 410 161 435 q 193 369 161 391 q 245 347 224 347 q 300 365 271 347 q 332 410 332 385 m 349 880 q 349 861 359 871 l 258 770 q 238 770 248 761 l 146 861 q 147 884 134 871 l 232 970 q 256 970 243 982 l 349 880 z "},"ق":{"ha":878,"x_min":83,"x_max":876,"o":"m 876 132 q 810 -184 876 -76 q 473 -342 715 -342 q 203 -278 304 -342 q 83 -41 83 -201 q 115 143 83 38 q 200 268 153 268 q 237 243 229 268 q 241 194 241 230 q 233 140 241 177 q 224 85 224 104 q 494 -49 224 -49 q 739 -3 676 -49 q 751 16 751 7 q 699 33 751 33 q 526 59 571 33 q 473 177 473 89 q 526 419 473 309 q 672 542 586 542 q 876 132 876 542 m 739 283 q 706 324 739 305 q 653 342 677 342 q 591 295 591 342 q 668 269 591 269 q 739 283 739 269 m 842 739 q 842 722 851 732 l 761 643 q 743 643 752 634 l 667 717 l 593 643 q 575 643 584 634 l 494 722 q 496 743 484 731 l 570 818 q 591 818 580 829 l 667 745 l 739 818 q 760 818 749 828 l 842 739 z "},"ﻖ":{"ha":917,"x_min":83,"x_max":937,"o":"m 937 1 l 861 1 q 811 -196 861 -117 q 473 -342 719 -342 q 203 -278 304 -342 q 83 -41 83 -201 q 115 143 83 38 q 200 268 153 268 q 237 243 229 268 q 241 194 241 230 q 233 140 241 177 q 224 85 224 104 q 494 -49 224 -49 q 747 -12 703 -49 q 767 11 767 4 q 696 22 767 22 q 540 45 587 22 q 473 177 473 79 q 526 419 473 309 q 672 542 586 542 q 852 309 828 542 l 937 309 l 937 1 m 734 283 q 703 324 734 304 q 650 342 673 342 q 587 295 587 342 q 664 269 587 269 q 734 283 734 269 m 842 739 q 842 722 851 732 l 761 643 q 743 643 752 634 l 667 717 l 593 643 q 575 643 584 634 l 494 722 q 496 743 484 731 l 570 818 q 591 818 580 829 l 667 745 l 739 818 q 760 818 749 828 l 842 739 z "},"ﻗ":{"ha":456,"x_min":-21,"x_max":454,"o":"m 454 399 q 66 1 454 1 l -21 1 l -21 309 l 64 309 q 322 334 289 309 q 336 358 336 345 q 317 376 336 376 q 305 374 311 376 q 199 363 282 363 q 24 504 24 363 q 71 690 24 598 q 212 800 127 800 q 404 648 336 800 q 454 399 454 533 m 296 550 q 264 591 296 572 q 212 608 236 608 q 171 597 189 608 q 150 562 150 584 q 225 536 150 536 q 296 550 296 536 m 391 991 q 390 975 398 985 l 309 896 q 292 896 300 887 l 216 970 l 140 896 q 123 896 133 886 l 43 974 q 44 996 33 984 l 118 1071 q 139 1071 128 1081 l 216 998 l 287 1071 q 308 1071 297 1081 l 391 991 z "},"ﻘ":{"ha":465,"x_min":-20,"x_max":484,"o":"m 484 1 l 430 1 q 317 37 377 1 q 245 95 270 64 q 26 1 133 1 l -20 1 l -20 309 l 76 309 q 54 400 54 332 q 117 576 54 486 q 286 681 190 681 q 408 606 365 681 q 441 477 441 549 q 396 309 441 366 l 484 309 l 484 1 m 332 410 q 300 450 332 432 q 249 465 273 465 q 194 452 221 465 q 161 410 161 435 q 193 369 161 391 q 245 347 224 347 q 300 365 271 347 q 332 410 332 385 m 410 873 q 415 866 415 870 q 410 857 415 863 l 330 777 q 312 777 321 768 l 236 851 l 161 777 q 144 777 153 768 l 62 857 q 64 878 53 866 l 138 953 q 159 953 149 963 l 236 880 l 307 953 q 328 953 317 963 l 410 873 z "},"ك":{"ha":1239,"x_min":83,"x_max":1247,"o":"m 1246 983 l 1223 760 q 1221 744 1222 747 q 1207 736 1218 739 l 926 649 q 1023 509 994 569 q 1063 324 1063 426 q 910 33 1063 112 q 608 -20 809 -20 l 558 -20 q 528 -19 558 -20 q 512 -19 522 -19 q 214 35 312 -19 q 83 290 83 108 q 108 445 83 368 q 174 530 136 530 q 213 461 214 530 q 252 345 212 380 q 522 285 319 285 q 868 315 762 285 q 888 337 888 320 q 880 359 888 348 q 658 586 840 417 l 695 804 q 710 823 698 819 l 1236 997 q 1244 999 1242 999 q 1246 983 1247 997 z "},"ﮏ":{"ha":1293,"x_min":82,"x_max":1313,"o":"m 1313 1 l 1261 1 q 1119 51 1196 1 q 1005 153 1053 94 q 828 7 952 47 q 598 -20 743 -20 l 553 -20 q 526 -19 553 -20 q 511 -19 520 -19 q 213 35 311 -19 q 82 290 82 108 q 107 445 82 370 q 174 530 136 530 q 212 461 213 530 q 252 345 212 380 q 522 285 319 285 q 833 308 757 285 q 850 323 850 313 q 840 345 850 332 q 623 578 789 405 l 661 797 q 675 817 663 812 l 1200 990 q 1210 992 1208 993 q 1211 977 1213 991 l 1189 753 q 1186 738 1187 741 q 1172 729 1183 733 l 863 624 q 1068 392 1053 407 q 1242 309 1156 309 l 1313 309 l 1313 1 z "},"ﮐ":{"ha":606,"x_min":-20,"x_max":612,"o":"m 611 983 l 587 760 q 585 744 586 746 q 571 736 582 739 l 292 649 q 389 509 360 568 q 428 324 428 427 q 285 42 428 121 q 103 1 210 1 l -20 1 l -20 309 l 43 309 q 232 321 183 309 q 253 345 253 327 q 245 366 253 355 q 142 478 209 418 q 22 586 109 508 l 60 804 q 75 823 63 819 l 600 997 q 609 999 606 999 q 611 983 612 999 z "},"ﮑ":{"ha":681,"x_min":-20,"x_max":702,"o":"m 702 1 l 649 1 q 507 51 585 1 q 393 153 441 94 q 259 27 349 62 q 64 1 191 1 l -20 1 l -20 309 l 68 309 q 216 320 176 309 q 233 335 233 325 q 221 357 233 342 q 12 578 194 390 l 49 797 q 64 817 52 812 l 589 990 q 599 992 596 993 q 600 977 602 991 l 577 753 q 574 738 576 741 q 560 729 572 733 l 252 624 q 457 392 435 413 q 631 309 545 309 l 702 309 l 702 1 z "},"گ":{"ha":1248,"x_min":83,"x_max":1248,"o":"m 1248 989 l 1241 926 l 720 757 l 732 830 l 1248 989 m 1237 864 l 1223 679 q 1221 663 1223 665 q 1207 654 1218 656 l 939 581 q 1043 324 1043 456 q 897 33 1043 112 q 608 -20 801 -20 l 558 -20 l 512 -19 q 214 35 307 -16 q 83 290 83 108 q 108 445 83 368 q 174 530 136 530 q 213 461 214 530 q 252 345 212 380 q 522 285 319 285 q 848 315 743 285 q 869 338 869 321 q 860 359 869 349 q 681 534 823 404 l 713 705 q 718 715 713 709 l 1227 878 q 1236 880 1235 880 q 1237 864 1238 876 z "},"ﮓ":{"ha":1293,"x_min":82,"x_max":1313,"o":"m 1248 989 l 1241 926 l 720 757 l 732 830 l 1248 989 m 1313 1 l 1261 1 q 1119 51 1196 1 q 1005 153 1053 94 q 828 7 952 47 q 598 -20 743 -20 l 553 -20 q 526 -19 553 -20 q 511 -19 520 -19 q 213 35 311 -19 q 82 290 82 108 q 107 445 82 370 q 174 530 136 530 q 212 461 213 530 q 252 345 212 380 q 522 285 319 285 q 833 308 757 285 q 850 323 850 313 q 840 345 850 330 q 681 534 790 410 l 713 705 q 718 715 713 709 l 1227 878 q 1236 880 1235 880 q 1237 864 1238 876 l 1223 679 q 1221 663 1223 665 q 1207 654 1218 657 l 923 567 l 1093 366 q 1242 309 1155 309 l 1313 309 l 1313 1 z "},"ﮔ":{"ha":571,"x_min":-20,"x_max":593,"o":"m 593 989 l 585 926 l 64 757 l 77 830 l 593 989 m 582 864 l 568 679 q 565 662 566 665 q 551 654 562 657 l 283 581 q 387 323 387 457 q 258 46 387 126 q 90 1 185 1 l -20 1 l -20 309 l 43 309 q 191 319 140 309 q 212 340 212 324 q 203 359 212 349 q 25 534 166 406 l 57 705 q 62 715 57 709 l 570 878 q 581 879 579 880 q 582 864 583 876 z "},"ﮕ":{"ha":644,"x_min":-20,"x_max":665,"o":"m 599 989 l 592 926 l 71 757 l 83 830 l 599 989 m 665 1 l 612 1 q 470 51 547 1 q 356 153 404 94 q 81 1 281 1 l -20 1 l -20 309 l 52 309 q 184 321 146 309 q 201 337 201 328 q 191 358 201 345 q 33 534 132 428 l 64 705 q 70 715 64 709 l 578 878 q 587 880 586 880 q 588 864 589 876 l 574 679 q 572 663 574 665 q 558 654 569 657 l 274 567 l 444 366 q 593 309 506 309 l 665 309 l 665 1 z "},"ل":{"ha":850,"x_min":83,"x_max":850,"o":"m 842 772 q 850 744 850 754 q 830 728 850 728 q 775 740 812 728 q 815 136 815 413 q 723 -190 815 -71 q 418 -322 621 -322 q 155 -222 242 -322 q 83 -14 83 -141 q 109 163 83 68 q 186 281 140 281 q 228 208 228 281 q 223 161 228 193 q 218 113 218 130 q 427 -22 218 -22 q 578 -2 527 -22 q 657 113 657 28 q 604 486 657 226 q 515 862 559 707 l 685 1013 q 716 1033 708 1033 q 739 1002 724 1033 l 842 772 z "},"ﻞ":{"ha":921,"x_min":83,"x_max":935,"o":"m 935 1 l 890 1 q 798 49 843 1 q 743 -168 798 -73 q 452 -322 655 -322 q 193 -252 288 -322 q 83 -14 83 -172 q 114 170 83 64 q 196 295 150 295 q 238 221 238 295 q 233 173 238 205 q 228 125 228 141 q 480 -22 228 -22 q 671 114 671 -22 q 670 134 671 124 l 617 869 q 625 886 616 881 l 831 1019 q 844 1023 842 1026 q 845 1008 845 1021 l 845 381 q 911 309 845 309 l 935 309 l 935 1 z "},"ﻟ":{"ha":365,"x_min":-20,"x_max":363,"o":"m 355 772 q 363 743 363 754 q 344 728 363 728 q 289 740 327 728 l 305 322 q 240 66 312 150 q 98 1 184 1 l -20 1 l -20 309 l 19 309 q 91 315 71 309 q 124 362 124 326 q 96 570 124 418 q 29 862 65 733 l 199 1013 q 230 1033 222 1033 q 252 1002 238 1033 l 355 772 z "},"ﻠ":{"ha":381,"x_min":-20,"x_max":394,"o":"m 394 1 l 357 1 q 258 37 306 1 q 199 102 220 66 q 29 1 127 1 l -20 1 l -20 309 l 19 309 q 92 414 97 309 l 71 869 q 77 886 70 882 l 284 1019 q 297 1023 294 1026 q 298 1008 298 1021 l 298 395 q 315 337 298 362 q 364 309 333 309 l 394 309 l 394 1 z "},"م":{"ha":705,"x_min":79,"x_max":703,"o":"m 703 397 q 667 235 703 328 q 565 122 623 122 q 416 139 516 122 l 300 159 q 270 146 279 162 q 264 112 264 135 l 273 -130 q 252 -233 273 -160 q 214 -326 231 -305 q 155 -356 189 -356 q 127 -334 138 -356 q 117 -297 117 -317 q 83 220 112 -174 q 118 321 79 267 q 203 389 157 375 q 263 391 232 397 q 250 458 250 406 q 326 585 250 513 q 456 656 401 656 q 618 566 534 656 q 703 397 703 475 m 568 378 q 472 441 526 416 q 410 460 430 460 q 355 422 376 460 q 363 387 338 391 q 566 349 454 374 q 583 355 583 345 q 568 378 583 363 z "},"ﻢ":{"ha":718,"x_min":75,"x_max":739,"o":"m 739 1 l 700 1 q 665 17 674 1 q 637 -109 665 -60 q 533 -172 604 -172 q 380 -69 438 -172 q 321 138 334 13 q 305 142 313 142 q 268 123 283 142 q 252 81 252 104 l 252 -159 q 235 -243 252 -183 q 204 -321 217 -302 q 144 -357 178 -357 q 109 -321 121 -357 q 99 -267 99 -295 q 82 187 99 -70 q 147 355 75 294 q 321 412 213 412 q 367 409 344 412 q 389 467 370 467 q 469 415 395 467 q 561 353 550 359 q 693 309 647 309 l 739 309 l 739 1 m 552 56 q 511 132 552 98 q 405 223 422 204 q 516 20 433 20 q 552 56 552 20 z "},"ﻣ":{"ha":532,"x_min":-22,"x_max":531,"o":"m 531 214 q 474 62 531 125 q 328 -4 416 -4 q 146 103 216 -4 q 22 1 100 1 l -22 1 l -22 309 l 1 309 q 90 362 86 309 q 130 487 94 433 q 291 568 184 568 q 484 433 420 568 q 531 214 531 334 m 424 269 q 400 362 424 312 q 334 422 372 422 q 300 407 313 422 q 286 370 286 391 q 309 269 286 318 q 386 207 337 207 q 424 269 424 207 z "},"ﻤ":{"ha":622,"x_min":-22,"x_max":643,"o":"m 643 1 l 602 1 q 530 37 567 1 q 484 106 496 69 q 328 -4 434 -4 q 146 103 216 -4 q 22 1 100 1 l -22 1 l -22 309 l 1 309 q 90 362 86 309 q 130 487 94 433 q 291 568 184 568 q 436 501 381 568 q 508 376 449 486 q 589 309 544 309 l 643 309 l 643 1 m 424 269 q 400 362 424 312 q 334 422 372 422 q 300 407 313 422 q 286 370 286 391 q 309 269 286 318 q 386 207 337 207 q 424 269 424 207 z "},"ن":{"ha":898,"x_min":83,"x_max":896,"o":"m 896 90 q 756 -269 896 -166 q 465 -342 656 -342 q 200 -275 300 -342 q 83 -41 83 -197 q 111 151 83 53 q 199 277 145 277 q 242 203 242 277 q 234 147 242 184 q 227 90 227 109 q 494 -49 227 -49 q 768 52 768 -49 q 708 146 768 74 q 619 235 651 214 l 732 456 q 749 477 743 477 q 773 458 754 477 q 850 322 814 415 q 896 90 896 206 m 543 524 q 548 515 548 519 q 543 505 548 510 l 452 414 q 432 414 442 404 l 340 503 q 342 528 328 514 l 427 614 q 450 614 438 625 l 543 524 z "},"ﻦ":{"ha":949,"x_min":83,"x_max":970,"o":"m 970 1 l 932 1 q 876 31 896 1 q 465 -342 876 -342 q 199 -278 296 -342 q 83 -41 83 -201 q 115 143 83 38 q 200 268 153 268 q 237 243 229 268 q 241 194 241 230 q 233 139 241 176 q 224 84 224 102 q 494 -49 224 -49 q 645 -31 574 -49 q 751 55 751 -3 q 615 214 751 104 l 721 420 q 732 431 727 431 q 747 420 736 431 q 913 309 854 309 l 970 309 l 970 1 m 543 520 q 543 501 553 511 l 452 410 q 432 410 442 400 l 340 500 q 342 523 329 510 l 427 610 q 450 610 438 621 l 543 520 z "},"ﻧ":{"ha":319,"x_min":-20,"x_max":317,"o":"m 317 357 q 264 91 317 168 q 33 1 201 1 l -20 1 l -20 309 l 134 309 q 174 331 174 309 q 162 357 174 342 q 54 471 120 412 q 54 495 43 480 l 180 678 q 195 693 190 693 q 212 680 201 693 q 317 357 317 549 m 239 911 q 239 892 250 902 l 148 802 q 128 802 138 792 l 36 890 q 38 915 24 901 l 123 1001 q 146 1001 134 1013 l 239 911 z "},"ﻨ":{"ha":391,"x_min":-19,"x_max":412,"o":"m 412 1 l 359 1 q 208 91 262 1 q 47 1 155 1 l -19 1 l -19 309 l 24 309 q 125 352 96 309 q 152 431 132 362 q 199 475 165 475 q 241 431 231 475 q 263 352 256 365 q 359 309 289 309 l 412 309 l 412 1 m 289 748 q 288 729 298 739 l 197 638 q 177 638 187 628 l 85 728 q 87 751 75 739 l 172 838 q 195 838 183 849 l 289 748 z "},"و":{"ha":599,"x_min":54,"x_max":596,"o":"m 596 135 q 469 -337 596 -203 q 429 -353 454 -353 l 111 -353 q 54 -307 54 -353 q 79 -271 54 -282 q 290 -152 166 -229 q 459 -6 456 -47 q 279 10 321 -6 q 189 176 189 45 q 229 397 189 294 q 389 541 283 541 q 559 386 507 541 q 596 135 596 279 m 454 254 q 422 295 454 275 q 369 313 393 313 q 306 266 306 313 q 382 240 306 240 q 454 254 454 240 z "},"ﻮ":{"ha":644,"x_min":54,"x_max":663,"o":"m 663 1 l 590 1 q 469 -337 572 -227 q 429 -353 454 -353 l 111 -353 q 54 -307 54 -353 q 79 -271 54 -282 q 290 -152 166 -229 q 459 -6 456 -47 q 280 10 322 -6 q 189 176 189 45 q 229 397 189 294 q 389 541 283 541 q 583 309 536 541 l 663 309 l 663 1 m 450 251 q 418 292 450 273 q 366 311 389 311 q 304 264 304 311 q 380 238 304 238 q 450 251 450 238 z "},"ه":{"ha":597,"x_min":82,"x_max":597,"o":"m 597 328 q 531 100 597 189 q 322 2 457 2 q 82 225 82 2 q 132 462 82 307 q 253 645 191 645 q 466 570 361 645 q 597 328 597 477 m 460 310 q 384 370 460 337 q 279 401 314 401 q 245 373 258 401 q 234 326 234 350 q 357 268 234 268 q 460 310 460 268 z "},"ﻪ":{"ha":641,"x_min":83,"x_max":661,"o":"m 661 1 l 591 1 q 400 161 442 1 q 337 92 371 92 q 192 125 274 92 q 83 240 83 170 q 138 395 83 317 q 305 543 143 402 l 292 602 l 450 761 q 466 770 460 770 q 477 753 473 770 l 541 404 q 616 309 559 309 l 661 309 l 661 1 m 372 302 l 334 440 q 239 341 239 370 q 372 302 239 309 z "},"ﻫ":{"ha":648,"x_min":-20,"x_max":647,"o":"m 647 254 q 603 102 647 184 q 469 0 548 0 q 280 89 412 0 q 102 1 184 1 l -20 1 l -20 309 l 59 309 q 44 369 44 334 q 110 489 44 458 l 70 515 l 161 720 q 193 754 176 754 q 234 736 203 754 q 510 543 418 633 q 647 254 647 408 m 516 227 q 418 341 516 273 q 419 328 419 335 q 374 235 419 260 q 427 201 392 220 q 485 180 468 180 q 516 227 516 180 m 317 363 q 293 405 317 387 q 246 424 270 424 q 193 409 220 424 q 162 368 162 391 q 197 328 162 349 q 250 309 229 309 q 294 326 271 309 q 317 363 317 342 z "},"ﻬ":{"ha":521,"x_min":-20,"x_max":541,"o":"m 541 1 l 430 1 q 465 -113 465 -73 q 430 -212 465 -176 q 333 -249 395 -249 q 147 -155 227 -249 q 71 1 84 -79 l -20 1 l -20 309 l 79 309 q 168 479 90 391 q 352 581 256 581 q 439 545 404 581 q 475 458 475 509 q 425 309 475 384 l 541 309 l 541 1 m 347 359 q 290 399 347 399 q 176 300 231 399 l 290 300 q 330 318 313 300 q 347 359 347 336 m 341 -51 q 324 -10 341 -28 q 284 8 307 8 l 172 8 q 284 -90 227 -90 q 341 -51 341 -90 z "},"ة":{"ha":597,"x_min":82,"x_max":597,"o":"m 597 328 q 531 100 597 189 q 322 2 457 2 q 82 225 82 2 q 132 462 82 307 q 253 645 191 645 q 466 570 361 645 q 597 328 597 477 m 460 310 q 384 370 460 337 q 279 401 314 401 q 245 373 258 401 q 234 326 234 350 q 357 268 234 268 q 460 310 460 268 m 398 969 l 382 871 q 109 743 235 828 l 113 819 q 184 870 157 854 q 145 891 161 871 q 129 936 129 912 q 163 1041 129 989 q 254 1100 201 1100 q 318 1081 286 1100 q 361 1034 349 1063 q 365 1017 365 1024 q 350 1003 365 1003 q 323 1007 341 1003 q 296 1012 305 1012 q 241 1002 266 1012 q 208 962 208 987 q 272 930 208 930 q 324 943 286 930 l 398 969 z "},"ﮥ":{"ha":641,"x_min":83,"x_max":661,"o":"m 661 1 l 591 1 q 400 161 442 1 q 337 92 371 92 q 192 125 274 92 q 83 240 83 170 q 138 395 83 317 q 305 543 143 402 l 292 602 l 450 761 q 466 770 460 770 q 477 753 473 770 l 541 404 q 616 309 559 309 l 661 309 l 661 1 m 372 302 l 334 440 q 239 341 239 370 q 372 302 239 309 m 486 976 l 471 878 q 197 750 323 835 l 201 825 q 273 877 245 861 q 233 898 250 878 q 217 943 217 919 q 251 1048 217 996 q 342 1107 289 1107 q 406 1088 374 1107 q 449 1041 437 1069 q 453 1023 453 1031 q 438 1010 453 1010 q 411 1014 429 1010 q 385 1019 393 1019 q 330 1008 354 1019 q 296 969 296 994 q 360 937 296 937 q 412 950 374 937 l 486 976 z "},"ي":{"ha":1010,"x_min":82,"x_max":1008,"o":"m 1008 81 q 486 -347 1008 -347 q 82 -3 82 -347 q 111 183 82 66 q 196 330 148 330 q 252 263 252 330 q 245 200 252 242 q 238 136 238 157 q 564 -52 238 -52 q 876 -2 732 -52 q 901 19 901 7 q 866 37 901 33 l 641 60 q 501 185 501 87 q 579 438 501 294 q 811 617 676 617 q 958 532 897 617 q 1008 408 1008 463 q 987 341 1008 341 q 913 362 979 341 q 807 384 847 384 q 689 349 737 384 q 650 297 650 320 q 743 269 650 281 q 903 247 884 251 q 1008 81 1008 224 z "},"ﯽ":{"ha":1090,"x_min":82,"x_max":1111,"o":"m 1111 1 l 1069 1 q 1020 33 1048 1 q 947 94 985 75 q 768 126 881 126 q 661 111 703 126 q 636 94 636 102 q 713 77 636 77 q 883 64 837 77 q 976 -57 976 37 q 504 -348 976 -348 q 138 -220 235 -348 q 82 -12 82 -146 q 120 182 82 81 q 203 290 160 290 q 256 230 256 290 q 250 168 256 209 q 243 106 243 127 q 577 -86 243 -86 q 850 -66 754 -86 q 886 -47 886 -58 q 850 -33 886 -36 q 724 -28 789 -28 q 584 -16 623 -28 q 518 73 518 6 q 718 271 518 212 q 1026 309 846 309 l 1111 309 l 1111 1 z "},"ﯾ":{"ha":367,"x_min":-20,"x_max":378,"o":"m 317 357 q 264 91 317 168 q 33 1 201 1 l -20 1 l -20 309 l 134 309 q 174 331 174 309 q 162 357 174 342 q 54 471 120 412 q 54 495 43 480 l 180 678 q 195 693 190 693 q 212 680 201 693 q 317 357 317 549 m 368 -199 q 368 -216 378 -206 l 287 -295 q 269 -295 278 -304 l 193 -221 l 119 -295 q 101 -295 110 -304 l 20 -216 q 22 -195 10 -207 l 97 -119 q 117 -119 107 -109 l 193 -193 l 265 -119 q 286 -119 275 -109 l 368 -199 z "},"ﯿ":{"ha":391,"x_min":-19,"x_max":412,"o":"m 412 1 l 359 1 q 208 91 262 1 q 47 1 155 1 l -19 1 l -19 309 l 24 309 q 125 352 96 309 q 152 431 132 362 q 199 475 165 475 q 241 431 231 475 q 263 352 256 365 q 359 309 289 309 l 412 309 l 412 1 m 368 -199 q 368 -216 378 -206 l 287 -295 q 269 -295 278 -304 l 193 -221 l 119 -295 q 101 -295 110 -304 l 20 -216 q 22 -195 10 -207 l 97 -119 q 117 -119 107 -109 l 193 -193 l 265 -119 q 286 -119 275 -109 l 368 -199 z "},"ﻵ":{"ha":925,"x_min":73,"x_max":922,"o":"m 911 771 q 922 728 922 742 q 907 712 922 712 q 859 725 892 712 q 819 468 864 580 q 743 348 787 390 q 798 184 795 254 q 778 94 798 163 q 741 14 756 20 q 490 -19 659 -19 q 387 -16 441 -19 q 348 -1 348 -14 q 359 33 348 9 q 391 193 377 75 q 578 342 538 271 q 357 594 477 494 l 331 551 l 201 724 q 198 760 191 738 l 262 962 q 295 995 273 995 q 324 982 308 995 q 504 766 393 926 q 665 496 608 613 q 684 595 686 542 q 611 851 677 738 l 782 1010 q 808 1028 801 1028 q 824 1008 817 1028 l 911 771 m 675 196 q 644 248 669 220 q 528 168 607 205 q 659 173 600 158 q 675 196 680 178 m 711 1240 q 601 1129 711 1187 q 368 1067 485 1067 q 273 1082 335 1067 q 179 1097 210 1097 q 140 1064 161 1097 q 104 1031 119 1031 q 73 1081 73 1031 q 117 1190 73 1114 q 203 1273 166 1273 q 183 1270 183 1273 q 281 1244 183 1263 q 472 1214 425 1214 q 590 1240 514 1214 q 686 1265 665 1265 q 711 1240 711 1265 z "},"ﻶ":{"ha":1019,"x_min":73,"x_max":1037,"o":"m 1037 1 l 960 1 q 808 83 848 1 q 773 337 773 155 q 690 155 746 262 q 607 14 640 58 q 420 -14 597 1 q 268 -24 311 -24 q 233 14 233 -24 q 257 53 233 39 q 534 309 438 160 q 540 337 540 319 q 486 508 540 399 q 377 644 429 623 l 353 610 l 208 781 q 199 825 191 801 l 255 1006 q 292 1044 267 1044 q 333 1026 309 1044 q 556 722 463 929 q 639 438 631 555 q 861 988 706 541 q 908 1029 876 1029 q 950 980 947 1029 q 952 912 952 944 q 942 689 952 838 q 931 465 931 540 q 983 309 931 309 l 1037 309 l 1037 1 m 711 1276 q 601 1166 711 1224 q 368 1104 485 1104 q 273 1119 335 1104 q 179 1134 210 1134 q 140 1101 161 1134 q 104 1067 119 1067 q 73 1118 73 1067 q 117 1227 73 1151 q 203 1310 166 1310 q 183 1307 183 1310 q 281 1280 183 1300 q 472 1251 425 1251 q 590 1276 514 1251 q 686 1302 665 1302 q 711 1276 711 1302 z "},"ﻷ":{"ha":860,"x_min":94,"x_max":849,"o":"m 838 771 q 849 728 849 742 q 833 712 849 712 q 786 725 819 712 q 745 468 791 580 q 669 348 713 390 q 724 184 722 254 q 705 94 725 163 q 668 14 683 20 q 417 -19 585 -19 q 314 -16 368 -19 q 275 -1 275 -14 q 286 33 275 9 q 318 193 304 75 q 505 342 465 271 q 283 594 404 494 l 258 551 l 128 724 q 125 760 118 738 l 189 962 q 222 995 200 995 q 251 982 235 995 q 431 766 320 926 q 591 496 535 613 q 610 595 612 542 q 538 851 604 738 l 709 1010 q 734 1028 728 1028 q 751 1008 743 1028 l 838 771 m 602 196 q 571 248 595 220 q 454 168 534 205 q 585 173 527 158 q 602 196 607 178 m 384 1257 l 369 1160 q 94 1032 220 1117 l 99 1107 q 171 1158 142 1143 q 132 1180 148 1159 q 115 1225 115 1201 q 149 1329 115 1276 q 239 1389 188 1389 q 303 1370 271 1389 q 347 1322 335 1351 q 351 1305 351 1312 q 336 1292 351 1292 q 310 1296 328 1292 q 283 1301 292 1301 q 227 1291 252 1301 q 193 1251 193 1276 q 258 1218 193 1218 q 310 1232 271 1218 l 384 1257 z "},"ﻸ":{"ha":951,"x_min":94,"x_max":971,"o":"m 971 1 l 895 1 q 742 83 782 1 q 707 337 707 155 q 625 155 680 262 q 541 14 574 58 q 354 -14 532 1 q 202 -24 245 -24 q 167 14 167 -24 q 191 53 167 39 q 468 309 371 159 q 474 337 474 319 q 420 508 474 399 q 311 644 363 623 l 287 610 l 141 781 q 132 825 125 801 l 189 1006 q 226 1044 201 1044 q 267 1026 243 1044 q 490 722 397 929 q 573 438 565 555 q 795 988 641 544 q 842 1029 810 1029 q 884 980 882 1029 q 886 912 886 944 q 876 689 886 838 q 865 465 865 540 q 918 309 865 309 l 971 309 l 971 1 m 384 1257 l 369 1160 q 94 1032 220 1117 l 99 1107 q 171 1158 142 1143 q 132 1180 148 1159 q 115 1225 115 1201 q 149 1329 115 1276 q 239 1389 188 1389 q 303 1370 271 1389 q 347 1322 335 1351 q 351 1305 351 1312 q 336 1292 351 1292 q 310 1296 328 1292 q 283 1301 292 1301 q 227 1291 252 1301 q 193 1251 193 1276 q 258 1218 193 1218 q 310 1232 271 1218 l 384 1257 z "},"ﻹ":{"ha":787,"x_min":45,"x_max":776,"o":"m 765 771 q 776 728 776 742 q 760 712 776 712 q 713 725 745 712 q 672 468 718 580 q 596 348 640 390 q 651 184 649 254 q 631 94 652 163 q 595 14 610 20 q 344 -19 512 -19 q 241 -16 294 -19 q 201 -1 201 -14 q 212 33 201 9 q 245 193 231 75 q 432 342 391 271 q 210 594 330 494 l 184 551 l 55 724 q 52 760 45 738 l 116 962 q 149 995 127 995 q 178 982 161 995 q 357 766 247 926 q 518 496 462 613 q 537 595 539 542 q 465 851 531 738 l 635 1010 q 661 1028 654 1028 q 677 1008 670 1028 l 765 771 m 529 196 q 498 248 522 220 q 381 168 460 205 q 512 173 454 158 q 529 196 534 178 m 423 -272 l 409 -370 q 134 -497 260 -412 l 138 -422 q 210 -372 183 -386 q 171 -349 187 -370 q 155 -304 155 -328 q 189 -200 155 -253 q 279 -140 227 -140 q 342 -159 311 -140 q 386 -207 374 -178 q 391 -225 391 -218 q 376 -237 391 -237 q 350 -233 368 -237 q 323 -229 332 -229 q 267 -239 292 -229 q 233 -279 233 -252 q 297 -311 233 -311 q 423 -272 300 -311 z "},"ﻺ":{"ha":870,"x_min":45,"x_max":890,"o":"m 890 1 l 814 1 q 661 83 701 1 q 627 337 627 155 q 544 155 600 262 q 460 14 493 58 q 273 -14 451 1 q 121 -24 165 -24 q 86 14 86 -24 q 111 53 86 39 q 387 309 292 160 q 393 337 393 319 q 339 508 393 399 q 231 644 282 623 l 207 610 l 61 781 q 52 825 45 801 l 109 1006 q 145 1044 120 1044 q 186 1026 163 1044 q 410 722 317 929 q 492 438 484 555 q 715 988 559 541 q 762 1029 729 1029 q 804 980 801 1029 q 806 912 806 944 q 795 689 806 838 q 785 465 785 540 q 837 309 785 309 l 890 309 l 890 1 m 423 -272 l 409 -370 q 134 -497 260 -412 l 138 -422 q 210 -372 183 -386 q 171 -349 187 -370 q 155 -304 155 -328 q 189 -200 155 -253 q 279 -140 227 -140 q 342 -159 311 -140 q 386 -207 374 -178 q 391 -225 391 -218 q 376 -237 391 -237 q 350 -233 368 -237 q 323 -229 332 -229 q 267 -239 292 -229 q 233 -279 233 -252 q 297 -311 233 -311 q 423 -272 300 -311 z "},"ﻻ":{"ha":787,"x_min":45,"x_max":776,"o":"m 765 771 q 776 728 776 742 q 760 712 776 712 q 713 725 745 712 q 672 468 718 580 q 596 348 640 390 q 651 184 649 254 q 631 94 652 163 q 595 14 610 20 q 344 -19 512 -19 q 241 -16 294 -19 q 201 -1 201 -14 q 212 33 201 9 q 245 193 231 75 q 432 342 391 271 q 210 594 330 494 l 184 551 l 55 724 q 52 760 45 738 l 116 962 q 149 995 127 995 q 178 982 161 995 q 357 766 247 926 q 518 496 462 613 q 537 595 539 542 q 465 851 531 738 l 635 1010 q 661 1028 654 1028 q 677 1008 670 1028 l 765 771 m 529 196 q 498 248 522 220 q 381 168 460 205 q 512 173 454 158 q 529 196 534 178 z "},"ﻼ":{"ha":870,"x_min":45,"x_max":890,"o":"m 890 1 l 814 1 q 661 83 701 1 q 627 337 627 155 q 544 155 600 262 q 460 14 493 58 q 273 -14 451 1 q 121 -24 165 -24 q 86 14 86 -24 q 111 53 86 39 q 387 309 292 160 q 393 337 393 319 q 339 508 393 399 q 231 644 282 623 l 207 610 l 61 781 q 52 825 45 801 l 109 1006 q 145 1044 120 1044 q 186 1026 163 1044 q 410 722 317 929 q 492 438 484 555 q 715 988 559 541 q 762 1029 729 1029 q 804 980 801 1029 q 806 912 806 944 q 795 689 806 838 q 785 465 785 540 q 837 309 785 309 l 890 309 l 890 1 z "},"ى":{"ha":1010,"x_min":82,"x_max":1008,"o":"m 1008 81 q 486 -347 1008 -347 q 82 -3 82 -347 q 111 183 82 66 q 196 330 148 330 q 252 263 252 330 q 245 200 252 242 q 238 136 238 157 q 564 -52 238 -52 q 876 -2 732 -52 q 901 19 901 7 q 866 37 901 33 l 641 60 q 501 185 501 87 q 579 438 501 294 q 811 617 676 617 q 958 532 897 617 q 1008 408 1008 463 q 987 341 1008 341 q 913 362 979 341 q 807 384 847 384 q 689 349 737 384 q 650 297 650 320 q 743 269 650 281 q 903 247 884 251 q 1008 81 1008 224 z "},"ﻰ":{"ha":1090,"x_min":82,"x_max":1111,"o":"m 1111 1 l 1069 1 q 1020 33 1048 1 q 947 94 985 75 q 768 126 881 126 q 661 111 703 126 q 636 94 636 102 q 713 77 636 77 q 883 64 837 77 q 976 -57 976 37 q 504 -348 976 -348 q 138 -220 235 -348 q 82 -12 82 -146 q 120 182 82 81 q 203 290 160 290 q 256 230 256 290 q 250 168 256 209 q 243 106 243 127 q 577 -86 243 -86 q 850 -66 754 -86 q 886 -47 886 -58 q 850 -33 886 -36 q 724 -28 789 -28 q 584 -16 623 -28 q 518 73 518 6 q 718 271 518 212 q 1026 309 846 309 l 1111 309 l 1111 1 z "},"ﷲ":{"ha":1349,"x_min":120,"x_max":1352,"o":"m 842 1312 q 857 1199 857 1265 q 805 1084 857 1084 q 785 1242 806 1165 l 842 1312 m 973 1091 q 884 917 973 917 q 834 941 853 917 q 751 869 810 869 q 684 945 684 869 q 694 1018 684 974 l 751 1027 q 739 975 739 996 q 759 949 739 949 q 806 1047 796 949 l 867 1065 l 863 1024 q 884 997 865 997 q 913 1015 908 997 q 918 1075 917 1027 l 973 1091 m 1343 684 q 1352 655 1352 666 q 1332 640 1352 640 q 1276 652 1314 640 l 1293 322 q 1294 290 1294 309 q 1237 83 1294 159 q 1046 -3 1173 -3 q 840 102 911 -3 q 765 30 796 51 q 669 1 722 1 q 465 163 517 1 q 427 117 456 142 q 374 92 396 92 q 229 125 311 92 q 120 240 120 170 q 174 381 120 306 q 271 450 190 404 q 381 507 339 490 l 368 560 l 498 694 q 516 705 509 705 q 530 682 526 705 l 580 414 q 680 309 600 309 q 753 414 760 309 l 732 739 q 739 757 731 752 l 923 876 q 939 865 939 887 l 939 506 q 973 328 939 377 q 1043 296 996 296 q 1097 316 1076 296 q 1118 368 1118 336 q 1051 774 1118 537 l 1187 924 q 1218 944 1210 944 q 1240 914 1226 944 l 1343 684 m 436 302 l 407 412 q 279 336 279 366 q 436 302 279 307 z "},"·":{"ha":275,"x_min":58,"x_max":221,"o":"m 221 521 q 197 463 221 487 q 139 439 173 439 q 82 464 106 439 q 58 521 58 488 q 81 578 58 554 q 138 603 104 603 q 197 579 172 603 q 221 521 221 555 z "}}}
